<?xml version="1.0" encoding="iso-8859-1"?>
<!-- Uploaded to: SVG Repo, www.svgrepo.com, Generator: SVG Repo Mixer Tools -->
<svg height="800px" width="800px" version="1.1" id="Layer_1" xmlns="http://www.w3.org/2000/svg" xmlns:xlink="http://www.w3.org/1999/xlink" 
	 viewBox="0 0 512 512" xml:space="preserve">
<path style="fill:#489B6D;" d="M265.341,364.247c-5.539-4.137-13.142-4.137-18.681,0c-22.719,16.965-36.282,44.002-36.282,72.326
	s13.562,55.361,36.282,72.326c2.769,2.068,6.055,3.102,9.341,3.102c3.286,0,6.57-1.034,9.341-3.102
	c22.719-16.965,36.282-44.002,36.282-72.326S288.06,381.212,265.341,364.247z"/>
<g>
	<path style="fill:#A2CE86;" d="M256,361.144c-3.286,0-6.571,1.035-9.341,3.103c-22.719,16.965-36.282,44.002-36.282,72.326
		s13.563,55.361,36.283,72.326c2.769,2.068,6.055,3.102,9.341,3.102L256,361.144z"/>
	<path style="fill:#A2CE86;" d="M147.864,265.231c4.138-5.54,4.138-13.141,0-18.681c-16.964-22.719-44.002-36.282-72.326-36.282
		s-55.36,13.563-72.325,36.282c-4.138,5.54-4.138,13.141,0,18.681c16.964,22.719,44.001,36.282,72.325,36.282
		S130.9,287.95,147.864,265.231z"/>
	<path style="fill:#A2CE86;" d="M83.858,70.538c-6.842,0.992-12.219,6.367-13.21,13.209c-4.068,28.06,5.459,56.769,25.486,76.798
		c16.978,16.978,40.194,26.41,63.967,26.41c4.269,0,8.558-0.304,12.829-0.924c6.842-0.992,12.217-6.367,13.209-13.209
		c4.068-28.06-5.459-56.769-25.486-76.797C140.629,75.998,111.928,66.467,83.858,70.538z"/>
</g>
<path style="fill:#489B6D;" d="M265.341,3.103c-5.539-4.137-13.142-4.137-18.681,0c-22.719,16.965-36.282,44.002-36.282,72.326
	s13.562,55.361,36.282,72.326c2.769,2.068,6.055,3.103,9.341,3.103c3.286,0,6.57-1.035,9.341-3.103
	c22.719-16.965,36.282-44.002,36.282-72.326S288.06,20.068,265.341,3.103z"/>
<path style="fill:#A2CE86;" d="M256,0c-3.286,0-6.571,1.035-9.341,3.103c-22.719,16.965-36.282,44.002-36.282,72.326
	s13.563,55.361,36.283,72.326c2.769,2.068,6.055,3.103,9.341,3.103L256,0z"/>
<g>
	<path style="fill:#489B6D;" d="M339.069,186.031c4.273,0.619,8.559,0.924,12.828,0.924c23.772-0.001,46.99-9.432,63.968-26.41
		c20.027-20.027,29.554-48.737,25.487-76.797c-0.992-6.843-6.366-12.219-13.209-13.21c-28.06-4.065-56.771,5.46-76.798,25.487
		c-20.027,20.027-29.554,48.737-25.486,76.797C326.851,179.664,332.226,185.039,339.069,186.031z"/>
	<path style="fill:#489B6D;" d="M508.787,246.55c-16.964-22.719-44.001-36.282-72.325-36.282s-55.361,13.563-72.326,36.282
		c-4.138,5.54-4.138,13.141,0,18.681c16.964,22.719,44.002,36.282,72.326,36.282s55.36-13.563,72.325-36.282
		C512.924,259.691,512.924,252.089,508.787,246.55z"/>
	<path style="fill:#489B6D;" d="M339.069,325.749c-6.842,0.992-12.217,6.367-13.209,13.209c-4.068,28.06,5.459,56.769,25.486,76.797
		c16.978,16.979,40.194,26.41,63.968,26.41c4.268,0,8.557-0.304,12.828-0.924c6.842-0.992,12.217-6.367,13.209-13.209
		c4.068-28.06-5.459-56.769-25.486-76.798C395.838,331.209,367.131,321.682,339.069,325.749z"/>
</g>
<path style="fill:#A2CE86;" d="M172.932,325.749c-28.066-4.067-56.77,5.46-76.797,25.486
	c-20.027,20.027-29.554,48.737-25.487,76.797c0.992,6.843,6.366,12.219,13.209,13.21c4.273,0.619,8.559,0.924,12.829,0.924
	c23.772,0,46.991-9.433,63.968-26.41c20.027-20.027,29.554-48.737,25.486-76.797C185.149,332.116,179.774,326.741,172.932,325.749z"
	/>
<path style="fill:#F5CA47;" d="M256,83.704c-94.943,0-172.185,77.242-172.185,172.185S161.057,428.075,256,428.075
	s172.185-77.242,172.185-172.185S350.943,83.704,256,83.704z"/>
<path style="fill:#F7F4A3;" d="M256,83.704c-94.943,0-172.185,77.242-172.185,172.185S161.057,428.075,256,428.075V83.704z"/>
</svg>