<?xml version="1.0" encoding="iso-8859-1"?>
<!-- Uploaded to: SVG Repo, www.svgrepo.com, Generator: SVG Repo Mixer Tools -->
<svg height="800px" width="800px" version="1.1" id="Layer_1" xmlns="http://www.w3.org/2000/svg" xmlns:xlink="http://www.w3.org/1999/xlink" 
	 viewBox="0 0 512.001 512.001" xml:space="preserve">
<path style="fill:#91C0F1;" d="M349.14,30.304l-0.382-0.275c-55.742-40.132-130.573-40.03-186.205,0.253
	c-55.23,39.989-78.813,110.63-58.685,175.776l2.985,9.663c11.145,36.074,25.521,73.56,43.485,114.6
	c8.032,18.348,12.332,37.999,12.332,58.406v31.695c0,31.92,25.514,57.53,57.434,57.53h71.93c31.92,0,57.348-25.611,57.348-57.53
	v-31.695c0-20.404,4.343-40.055,12.375-58.406c17.959-41.029,32.243-78.516,43.394-114.601l2.964-9.382
	C428.301,141.005,404.645,70.265,349.14,30.304z"/>
<path style="fill:#D7EDF3;" d="M256.003,0.001c-32.759-0.035-65.524,10.06-93.45,30.281c-55.23,39.989-78.813,110.63-58.685,175.776
	l2.985,9.663c11.145,36.074,25.521,73.56,43.485,114.6c8.032,18.348,12.332,37.999,12.332,58.406v31.695
	c0,31.92,25.514,57.53,57.434,57.53h35.897L256.003,0.001z"/>
<path style="fill:#489B6D;" d="M265.259,169.19c-5.345-3.343-12.129-3.343-17.474,0c-36.596,22.893-59.33,65.251-59.33,110.544
	c0,45.294,22.734,87.652,59.33,110.544c2.673,1.672,5.705,2.507,8.737,2.507c3.032,0,6.064-0.836,8.737-2.507
	c36.596-22.892,59.329-65.25,59.329-110.544C324.587,234.44,301.855,192.082,265.259,169.19z"/>
<path style="fill:#A2CE86;" d="M256.026,166.683c-2.197,0-5.816,0.836-8.489,2.507c-36.596,22.893-59.205,65.251-59.205,110.544
	c0,45.294,22.548,87.652,59.144,110.544c2.673,1.672,6.355,2.507,8.551,2.507V166.683H256.026z"/>
<path style="fill:#F5CA47;" d="M256.026,413.153c-9.098,0-16.475-7.376-16.475-16.475V292.34c0-9.098,7.376-16.475,16.475-16.475
	c9.098,0,16.475,7.376,16.475,16.475v104.339C272.5,405.778,265.124,413.153,256.026,413.153z"/>
<path style="fill:#F7F4A3;" d="M256.026,413.153c-9.098,0-16.475-7.376-16.475-16.475V292.34c0-9.098,7.376-16.475,16.475-16.475
	V413.153z"/>
<path style="fill:#4E7F4B;" d="M256.026,461.479c-9.098,0-16.475,7.376-16.475,16.475v17.573c0,9.098,7.376,16.475,16.475,16.475
	c9.098,0,16.475-7.376,16.475-16.475v-17.573C272.5,468.855,265.124,461.479,256.026,461.479z"/>
<path style="fill:#D7EDF3;" d="M290.073,461.479h-68.095c-9.098,0-16.475,7.376-16.475,16.475c0,9.098,7.376,16.475,16.475,16.475
	h68.095c9.098,0,16.475-7.376,16.475-16.475C306.548,468.855,299.172,461.479,290.073,461.479z"/>
<path style="fill:#4E7F4B;" d="M162.67,388.728v31.695c0,31.92,25.514,57.53,57.434,57.53h71.93c31.92,0,57.348-25.611,57.348-57.53
	v-31.695c0-4.342,0.209-8.648,0.595-12.916H162.079C162.463,380.08,162.67,384.385,162.67,388.728z"/>
<g>
	<path style="fill:#FFFFFF;" d="M349.382,388.728c0-4.342,0.209-8.648,0.595-12.916H162.079c0.384,4.268,0.591,8.574,0.591,12.916
		v13.443h186.712V388.728z"/>
	<path style="fill:#FFFFFF;" d="M163.787,431.824c1.977,9.978,6.51,18.993,12.887,26.359h158.739
		c6.364-7.366,10.884-16.381,12.855-26.359H163.787z"/>
</g>
</svg>