<?xml version="1.0" encoding="iso-8859-1"?>
<!-- Uploaded to: SVG Repo, www.svgrepo.com, Generator: SVG Repo Mixer Tools -->
<svg height="800px" width="800px" version="1.1" id="Layer_1" xmlns="http://www.w3.org/2000/svg" xmlns:xlink="http://www.w3.org/1999/xlink" 
	 viewBox="0 0 511.999 511.999" xml:space="preserve">
<path style="fill:#A2CE86;" d="M160.346,458.147c-0.522,0-1.047-0.02-1.574-0.059L50.44,450.03
	c-12.029-0.895-23.224-6.209-31.524-14.964C4.751,420.122,1.6,397.8,11.076,379.519l75.872-146.37
	c5.321-10.265,17.956-14.271,28.219-8.953c10.265,5.321,14.273,17.956,8.953,28.219l-75.872,146.37
	c-1.276,2.46-0.851,5.467,1.055,7.478c1.116,1.178,2.624,1.894,4.243,2.014l108.333,8.058c11.529,0.857,20.18,10.9,19.323,22.429
	C180.383,449.766,171.203,458.147,160.346,458.147z"/>
<path style="fill:#489B6D;" d="M139.926,335.926c-9.773,0-18.513-6.879-20.504-16.828l-14.824-74.045l-68.996,30.691
	c-10.565,4.696-22.937-0.056-27.634-10.619c-4.699-10.563,0.056-22.937,10.619-27.634l92.895-41.321
	c5.81-2.586,12.478-2.388,18.125,0.533c5.648,2.921,9.662,8.251,10.909,14.484l19.958,99.693
	c2.269,11.336-5.08,22.367-16.416,24.636C142.671,335.792,141.288,335.926,139.926,335.926z"/>
<path style="fill:#A2CE86;" d="M293.151,448.834c-11.54,0-20.906-9.341-20.933-20.887c-0.027-11.561,9.325-20.955,20.887-20.981
	l164.866-0.371c2.772-0.006,5.24-1.772,6.142-4.392c0.529-1.535,0.466-3.202-0.176-4.695l-42.924-99.789
	c-4.568-10.621,0.338-22.934,10.958-27.503c10.616-4.568,22.934,0.338,27.503,10.958l42.926,99.791
	c4.767,11.082,5.228,23.466,1.301,34.87c-6.704,19.469-25.044,32.58-45.635,32.626L293.2,448.832
	C293.185,448.834,293.167,448.834,293.151,448.834z"/>
<path style="fill:#489B6D;" d="M341.662,511.999c-4.566,0-9.163-1.486-13.015-4.55l-79.578-63.279
	c-4.977-3.957-7.885-9.962-7.905-16.32s2.851-12.38,7.803-16.369l79.181-63.777c9.003-7.253,22.183-5.834,29.435,3.171
	c7.253,9.004,5.832,22.183-3.171,29.435l-58.809,47.369l59.106,47c9.049,7.196,10.552,20.365,3.356,29.415
	C353.928,509.291,347.824,511.999,341.662,511.999z"/>
<path style="fill:#A2CE86;" d="M367.221,195.917c-7.067,0-13.964-3.578-17.906-10.059L263.65,44.995
	c-1.44-2.368-4.231-3.567-6.938-2.981c-1.588,0.342-2.981,1.257-3.924,2.578l-63.158,88.387
	c-6.723,9.406-19.798,11.582-29.203,4.862c-9.406-6.721-11.583-19.797-4.862-29.203l63.156-88.386
	c7.011-9.814,17.368-16.62,29.16-19.164c20.129-4.342,40.839,4.559,51.541,22.154l85.666,140.862
	c6.008,9.878,2.869,22.757-7.009,28.763C374.682,194.933,370.928,195.917,367.221,195.917z"/>
<path style="fill:#489B6D;" d="M383.18,222.545c-2.41,0-4.829-0.416-7.15-1.259l-95.557-34.728
	c-10.866-3.95-16.474-15.959-12.524-26.825c3.95-10.866,15.96-16.475,26.825-12.524l70.973,25.793l9.613-74.899
	c1.471-11.468,11.969-19.575,23.429-18.098c11.468,1.472,19.57,11.962,18.098,23.429l-12.943,100.844
	c-0.809,6.307-4.441,11.903-9.87,15.211C390.752,221.511,386.979,222.545,383.18,222.545z"/>
</svg>