<?xml version="1.0" encoding="utf-8"?>
<!-- Generator: Adobe Illustrator 27.6.1, SVG Export Plug-In . SVG Version: 6.00 Build 0)  -->
<svg version="1.1" id="_Слой_1" xmlns="http://www.w3.org/2000/svg" xmlns:xlink="http://www.w3.org/1999/xlink" x="0px"
	 y="0px" viewBox="0 0 696.2 235.8" style="enable-background:new 0 0 696.2 235.8;" xml:space="preserve">
<style type="text/css">
	.st0{fill:#003D7C;}
	.st1{fill:url(#SVGID_1_);}
</style>
<g>
	<g>
		<path class="st0" d="M249,0.4v52.9h-7.6V0.4H249z"/>
		<path class="st0" d="M261.9,15.5h6.8v6c2.7-4.1,7.3-6.8,12.5-6.8c9,0,16.3,5.7,16.3,17.6v20.9h-7.2V32.5c0-6.9-4.6-10.9-10.4-10.9
			c-6.7,0-10.8,5.3-10.8,11.5v20.2h-7.2V15.5z"/>
		<path class="st0" d="M322.6,47.3c1.7,0,3-0.1,4.6-0.5v6.6c-0.9,0.3-2.9,0.7-5,0.7c-8.2,0-12-4.1-12-11.8V22.3h-7.6v-6.8h7.6V5.7
			h7.2v9.8H328v6.8h-10.6v19.9C317.4,45.3,318.6,47.3,322.6,47.3L322.6,47.3z"/>
		<path class="st0" d="M351.5,14.8c12.4,0,20.1,8.8,19.1,22.6h-31c1.1,5.9,6.1,10.1,11.9,10.1c5.3,0,8.5-2.1,10.4-5.4h7.4
			c-2.4,7-9.5,12-17.8,12c-11.3,0-19.4-8.3-19.4-19.6S340.3,14.8,351.5,14.8L351.5,14.8z M362.9,31.1c-0.6-6.1-5.4-10-11.6-10
			s-10.7,4.2-11.6,10H362.9L362.9,31.1z"/>
		<path class="st0" d="M397.7,21.7c-6.9,0-11.2,5.1-11.2,11.1v20.5h-7.2V15.5h6.8v5.8c2.7-3.9,7.3-6.6,12.5-6.6
			c1.1,0,2.3,0.1,3.4,0.2v7C400.7,21.7,399.3,21.7,397.7,21.7L397.7,21.7z"/>
		<path class="st0" d="M409.6,15.5h6.8v6c2.7-4.1,7.3-6.8,12.5-6.8c9,0,16.3,5.7,16.3,17.6v20.9H438V32.5c0-6.9-4.6-10.9-10.4-10.9
			c-6.7,0-10.8,5.3-10.8,11.5v20.2h-7.2V15.5z"/>
		<path class="st0" d="M490.8,53.3h-7.2v-5.7c-3.1,4-7.7,6.4-12.8,6.4c-10.1,0-17.8-8.2-17.8-19.6s7.8-19.6,17.8-19.6
			c5.3,0,10,2.6,13.2,6.9v-6.1h6.8L490.8,53.3L490.8,53.3z M472.1,47.4c6.8,0,11.8-5.4,11.8-13s-5-13-11.8-13s-11.6,5.4-11.6,13
			S465.4,47.4,472.1,47.4z"/>
		<path class="st0" d="M505.2,42.3V22.3h-7.6v-6.8h7.6V5.7h7.2v9.8h18.9v6.8h-18.9v19.9c0,3,1.2,5,5.6,5c1.8,0,3.2-0.1,5-0.5v6.6
			c-1,0.3-3,0.7-5.2,0.7C509.5,54,505.2,50,505.2,42.3z"/>
		<path class="st0" d="M530.7,0.4h8v8.3h-8V0.4z M538.2,15.5v37.8H531V15.5H538.2z"/>
		<path class="st0" d="M546.9,34.4c0-11.1,8.8-19.6,20.1-19.6S587,23.3,587,34.4S578.3,54,567,54C555.8,54,546.9,45.5,546.9,34.4
			L546.9,34.4z M567,47.4c7.1,0,12.6-5.7,12.6-13s-5.4-13-12.6-13c-7.1,0-12.7,5.7-12.7,13S559.8,47.4,567,47.4z"/>
		<path class="st0" d="M595.6,15.5h6.8v6c2.7-4.1,7.3-6.8,12.5-6.8c9,0,16.3,5.7,16.3,17.6v20.9H624V32.5c0-6.9-4.6-10.9-10.4-10.9
			c-6.7,0-10.8,5.3-10.8,11.5v20.2h-7.2V15.5z"/>
		<path class="st0" d="M676.9,53.3h-7.2v-5.7c-3.1,4-7.7,6.4-12.8,6.4c-10.1,0-17.8-8.2-17.8-19.6s7.8-19.6,17.8-19.6
			c5.3,0,10,2.6,13.2,6.9v-6.1h6.8V53.3z M658.1,47.4c6.8,0,11.8-5.4,11.8-13s-5-13-11.8-13s-11.6,5.4-11.6,13
			S651.4,47.4,658.1,47.4z"/>
		<path class="st0" d="M696.2,0v53.3H689V0H696.2z"/>
		<path class="st0" d="M277,68.4v7.3h-28v15.7h25.7v7.1H249v22.9h-7.6V68.4L277,68.4L277,68.4z"/>
		<path class="st0" d="M280.4,102.4c0-11.1,8.8-19.6,20.1-19.6c11.3,0,19.9,8.5,19.9,19.6s-8.7,19.6-19.9,19.6
			C289.2,122.1,280.4,113.5,280.4,102.4z M300.5,115.4c7.1,0,12.6-5.7,12.6-13c0-7.3-5.4-13-12.6-13c-7.1,0-12.7,5.7-12.7,13
			C287.8,109.7,293.3,115.4,300.5,115.4z"/>
		<path class="st0" d="M347.5,89.7c-6.9,0-11.2,5.1-11.2,11.1v20.5h-7.2V83.5h6.8v5.8c2.7-3.9,7.3-6.6,12.5-6.6
			c1.1,0,2.3,0.1,3.4,0.2v7C350.4,89.7,349.1,89.7,347.5,89.7L347.5,89.7z"/>
		<path class="st0" d="M394.1,121.3h-6.8v-6c-2.7,4.1-7.3,6.8-12.5,6.8c-9,0-16.3-5.7-16.3-17.6V83.5h7.2v20.8
			c0,6.9,4.6,10.9,10.4,10.9c6.7,0,10.8-5.3,10.8-11.5V83.5h7.2V121.3z"/>
		<path class="st0" d="M406.2,83.5h6.8v6c2.6-4,7.1-6.7,12.1-6.7c5.8,0,10.9,2.5,13.6,7.6c2.9-4.5,8.2-7.6,14-7.6
			c8.8,0,15.9,5.7,15.9,17.6v20.9h-7.2v-20.8c0-6.9-4.5-10.9-10-10.9c-6.4,0-10.4,5.3-10.4,11.5v20.2h-7.2v-20.8
			c0-6.9-4.5-10.9-10-10.9c-6.4,0-10.4,5.3-10.4,11.5v20.2h-7.2L406.2,83.5L406.2,83.5z"/>
		<path class="st0" d="M277,136.4v7.1h-28v15.8h25.7v7.1H249v15.8h28v7.1h-35.5v-52.9L277,136.4L277,136.4z"/>
		<path class="st0" d="M302.8,150.8c8.3,0,15.8,5.4,17.9,13.2h-7.9c-1.7-4-5.7-6.6-10.4-6.6c-7.2,0-12.3,5.7-12.3,13
			c0,7.3,5.1,13,12.3,13c4.7,0,8.7-2.6,10.4-6.6h7.9c-2.1,7.9-9.6,13.2-17.9,13.2c-11.3,0-20.1-8.5-20.1-19.6
			S291.4,150.8,302.8,150.8z"/>
		<path class="st0" d="M325.6,170.4c0-11.1,8.8-19.6,20.1-19.6s19.9,8.5,19.9,19.6s-8.7,19.6-19.9,19.6
			C334.4,190.1,325.6,181.5,325.6,170.4z M345.7,183.4c7.1,0,12.6-5.7,12.6-13c0-7.3-5.4-13-12.6-13c-7.1,0-12.7,5.7-12.7,13
			C333,177.7,338.5,183.4,345.7,183.4z"/>
		<path class="st0" d="M381.5,136v53.3h-7.2V136H381.5z"/>
		<path class="st0" d="M390.2,170.4c0-11.1,8.8-19.6,20.1-19.6s19.9,8.5,19.9,19.6s-8.7,19.6-19.9,19.6
			C399,190.1,390.2,181.5,390.2,170.4z M410.3,183.4c7.1,0,12.6-5.7,12.6-13c0-7.3-5.4-13-12.6-13c-7.1,0-12.7,5.7-12.7,13
			C397.6,177.7,403.1,183.4,410.3,183.4z"/>
		<path class="st0" d="M438,192.2c0-3.8,2.1-6.8,7-8.5c-5.9-2.6-9.1-8.8-9.1-15c0-10,8.2-17.7,18.7-17.7c5.5,0,9.5,2.5,12.3,5.6
			v-5.2h6.8v17.3c0,6.1-2.7,11.9-9.1,14.9c5.1,1.5,7.2,4.8,7,8.5c-0.1,5.8-5,10-11.8,10h-10.1C442.9,202.2,438,198,438,192.2
			L438,192.2z M454.8,180.9c6.9-0.1,11.9-5.1,11.9-12c0-6.9-5.1-11.6-11.9-11.6s-11.6,4.9-11.6,11.6
			C443.2,175.6,448.1,180.8,454.8,180.9z M450.3,196.4h8.9c3.3,0,5.7-2,5.7-4.6c-0.1-2.6-2.3-4.6-5.7-4.6h-8.9c-3.3,0-5.6,2-5.7,4.6
			C444.6,194.4,447,196.4,450.3,196.4z"/>
		<path class="st0" d="M483.9,136.4h8v8.3h-8V136.4z M491.4,151.5v37.8h-7.2v-37.8H491.4z"/>
		<path class="st0" d="M520.2,150.8c8.3,0,15.8,5.4,17.9,13.2h-7.9c-1.7-4-5.7-6.6-10.4-6.6c-7.2,0-12.3,5.7-12.3,13
			c0,7.3,5.1,13,12.3,13c4.7,0,8.7-2.6,10.4-6.6h7.9c-2.1,7.9-9.6,13.2-17.9,13.2c-11.3,0-20.1-8.5-20.1-19.6
			S508.9,150.8,520.2,150.8z"/>
		<path class="st0" d="M542.1,177.4h7.2c1.4,4.5,5,6.4,10.7,6.4c5.4,0,9.1-2,9.1-4.8c0-2.6-1.6-4.3-8-5.4l-4.3-0.8
			c-9.4-1.7-13.6-5.4-13.6-11c0-6.7,6.4-11.1,15.9-11.1c8.4,0,15,4.1,16.7,11.3h-7.6c-1.3-3.2-5.3-4.8-9.2-4.8
			c-5.2,0-8.5,1.7-8.5,4.4c0,2.4,2.2,3.9,7.3,4.8l4.4,0.8c10.7,1.8,14.1,5.8,14.1,11.8c0,6.6-6.2,11.1-16.5,11.1
			C550.5,190.1,543.2,185.5,542.1,177.4L542.1,177.4z"/>
	</g>
	<g>
		<path class="st0" d="M248.5,217.1c4.5,0,7.3,3.2,7,8.2h-11.3c0.4,2.1,2.2,3.7,4.4,3.7c1.9,0,3.1-0.8,3.8-2h2.7
			c-0.9,2.6-3.5,4.4-6.5,4.4c-4.1,0-7.1-3-7.1-7.2S244.5,217.1,248.5,217.1L248.5,217.1z M252.7,223c-0.2-2.2-2-3.6-4.2-3.6
			c-2.3,0-3.9,1.5-4.2,3.6H252.7L252.7,223z"/>
		<path class="st0" d="M264.9,217.1c3,0,5.8,2,6.5,4.8h-2.9c-0.6-1.5-2.1-2.4-3.8-2.4c-2.6,0-4.5,2.1-4.5,4.7c0,2.7,1.9,4.7,4.5,4.7
			c1.7,0,3.2-0.9,3.8-2.4h2.9c-0.8,2.9-3.5,4.8-6.5,4.8c-4.1,0-7.3-3.1-7.3-7.2C257.6,220.2,260.8,217.1,264.9,217.1z"/>
		<path class="st0" d="M273.2,224.2c0-4.1,3.2-7.2,7.3-7.2c4.1,0,7.3,3.1,7.3,7.2c0,4-3.2,7.2-7.3,7.2
			C276.4,231.4,273.2,228.3,273.2,224.2z M280.5,229c2.6,0,4.6-2.1,4.6-4.7c0-2.7-2-4.7-4.6-4.7c-2.6,0-4.6,2.1-4.6,4.7
			C275.9,226.9,277.9,229,280.5,229z"/>
		<path class="st0" d="M293.6,211.7v19.4H291v-19.4H293.6z"/>
		<path class="st0" d="M296.8,224.2c0-4.1,3.2-7.2,7.3-7.2c4.1,0,7.3,3.1,7.3,7.2c0,4-3.2,7.2-7.3,7.2
			C300,231.4,296.8,228.3,296.8,224.2z M304.1,229c2.6,0,4.6-2.1,4.6-4.7c0-2.7-2-4.7-4.6-4.7c-2.6,0-4.6,2.1-4.6,4.7
			C299.5,226.9,301.5,229,304.1,229z"/>
		<path class="st0" d="M314.2,232.1c0-1.4,0.8-2.5,2.5-3.1c-2.1-1-3.3-3.2-3.3-5.5c0-3.6,3-6.4,6.8-6.4c2,0,3.5,0.9,4.5,2v-1.9h2.5
			v6.3c0,2.2-1,4.3-3.3,5.4c1.9,0.6,2.6,1.7,2.6,3.1c0,2.1-1.8,3.6-4.3,3.6h-3.7C316,235.8,314.2,234.3,314.2,232.1L314.2,232.1z
			 M320.3,228c2.5,0,4.4-1.9,4.4-4.4s-1.8-4.2-4.4-4.2c-2.5,0-4.2,1.8-4.2,4.2S317.9,228,320.3,228z M318.7,233.7h3.3
			c1.2,0,2.1-0.7,2.1-1.7c0-0.9-0.9-1.7-2.1-1.7h-3.3c-1.2,0-2,0.7-2.1,1.7C316.6,232.9,317.5,233.7,318.7,233.7z"/>
		<path class="st0" d="M335.9,230.9l-6.7-13.5h3.1l5,10.7l4.5-10.7h2.9l-8.1,18.4h-2.8L335.9,230.9L335.9,230.9z"/>
		<path class="st0" d="M360.9,217.1c3,0,5.8,2,6.5,4.8h-2.9c-0.6-1.5-2.1-2.4-3.8-2.4c-2.6,0-4.5,2.1-4.5,4.7c0,2.7,1.9,4.7,4.5,4.7
			c1.7,0,3.2-0.9,3.8-2.4h2.9c-0.8,2.9-3.5,4.8-6.5,4.8c-4.1,0-7.3-3.1-7.3-7.2C353.5,220.2,356.7,217.1,360.9,217.1z"/>
		<path class="st0" d="M369.2,224.2c0-4.1,3.2-7.2,7.3-7.2c4.1,0,7.3,3.1,7.3,7.2c0,4-3.2,7.2-7.3,7.2
			C372.4,231.4,369.2,228.3,369.2,224.2z M376.5,229c2.6,0,4.6-2.1,4.6-4.7c0-2.7-2-4.7-4.6-4.7c-2.6,0-4.6,2.1-4.6,4.7
			C371.9,226.9,373.9,229,376.5,229z"/>
		<path class="st0" d="M385.8,224.2c0-4.1,3.2-7.2,7.3-7.2c4.1,0,7.3,3.1,7.3,7.2c0,4-3.2,7.2-7.3,7.2
			C389,231.4,385.8,228.3,385.8,224.2z M393.1,229c2.6,0,4.6-2.1,4.6-4.7c0-2.7-2-4.7-4.6-4.7c-2.6,0-4.6,2.1-4.6,4.7
			C388.5,226.9,390.5,229,393.1,229z"/>
		<path class="st0" d="M406.1,217.3v2.2c1.2-1.5,2.9-2.5,4.8-2.5c3.7,0,6.5,3,6.5,7.2s-2.8,7.2-6.5,7.2c-1.8,0-3.5-0.9-4.7-2.3v6.8
			h-2.6v-18.4L406.1,217.3L406.1,217.3z M410.4,229c2.5,0,4.2-2,4.2-4.7c0-2.8-1.8-4.7-4.2-4.7c-2.4,0-4.3,2-4.3,4.7
			C406.1,227,408,229,410.4,229z"/>
		<path class="st0" d="M426.5,217.1c4.5,0,7.3,3.2,7,8.2h-11.3c0.4,2.1,2.2,3.7,4.4,3.7c1.9,0,3.1-0.8,3.8-2h2.7
			c-0.9,2.6-3.5,4.4-6.5,4.4c-4.1,0-7.1-3-7.1-7.2S422.4,217.1,426.5,217.1L426.5,217.1z M430.6,223c-0.2-2.2-2-3.6-4.2-3.6
			c-2.3,0-3.9,1.5-4.2,3.6H430.6L430.6,223z"/>
		<path class="st0" d="M443.3,219.6c-2.5,0-4.1,1.9-4.1,4.1v7.5h-2.6v-13.8h2.5v2.1c1-1.4,2.7-2.4,4.5-2.4c0.4,0,0.9,0,1.2,0.1v2.6
			C444.4,219.6,443.9,219.6,443.3,219.6L443.3,219.6z"/>
		<path class="st0" d="M459.4,231.1h-2.6v-2.1c-1.1,1.5-2.8,2.3-4.7,2.3c-3.7,0-6.5-3-6.5-7.2s2.8-7.2,6.5-7.2c1.9,0,3.6,1,4.8,2.5
			v-2.2h2.5V231.1L459.4,231.1z M452.5,229c2.5,0,4.3-2,4.3-4.7c0-2.8-1.8-4.7-4.3-4.7c-2.5,0-4.2,2-4.2,4.7
			C448.3,227,450.1,229,452.5,229z"/>
		<path class="st0" d="M464.6,227.1v-7.3h-2.8v-2.5h2.8v-3.6h2.6v3.6h6.9v2.5h-6.9v7.3c0,1.1,0.4,1.8,2,1.8c0.7,0,1.2,0,1.8-0.2v2.4
			c-0.4,0.1-1.1,0.2-1.9,0.2C466.2,231.4,464.6,229.9,464.6,227.1L464.6,227.1z"/>
		<path class="st0" d="M473.9,211.8h2.9v3h-2.9V211.8z M476.6,217.3v13.8H474v-13.8H476.6z"/>
		<path class="st0" d="M479.8,224.2c0-4.1,3.2-7.2,7.3-7.2c4.1,0,7.3,3.1,7.3,7.2c0,4-3.2,7.2-7.3,7.2
			C483,231.4,479.8,228.3,479.8,224.2z M487.1,229c2.6,0,4.6-2.1,4.6-4.7c0-2.7-2-4.7-4.6-4.7c-2.6,0-4.6,2.1-4.6,4.7
			C482.5,226.9,484.5,229,487.1,229z"/>
		<path class="st0" d="M497.6,217.3h2.5v2.2c1-1.5,2.7-2.5,4.5-2.5c3.3,0,5.9,2.1,5.9,6.4v7.6h-2.6v-7.6c0-2.5-1.7-4-3.8-4
			c-2.4,0-3.9,1.9-3.9,4.2v7.4h-2.6L497.6,217.3L497.6,217.3z"/>
		<path class="st0" d="M521.1,224.2c0-4.1,3.2-7.2,7.3-7.2c4.1,0,7.3,3.1,7.3,7.2c0,4-3.2,7.2-7.3,7.2
			C524.3,231.4,521.1,228.3,521.1,224.2z M528.4,229c2.6,0,4.6-2.1,4.6-4.7c0-2.7-2-4.7-4.6-4.7c-2.6,0-4.6,2.1-4.6,4.7
			C523.8,226.9,525.8,229,528.4,229z"/>
		<path class="st0" d="M541.4,217.3v2.2c1.2-1.5,2.9-2.5,4.8-2.5c3.7,0,6.5,3,6.5,7.2s-2.8,7.2-6.5,7.2c-1.8,0-3.5-0.9-4.7-2.3v6.8
			h-2.6v-18.4L541.4,217.3L541.4,217.3z M545.7,229c2.5,0,4.2-2,4.2-4.7c0-2.8-1.8-4.7-4.2-4.7c-2.4,0-4.3,2-4.3,4.7
			C541.4,227,543.2,229,545.7,229z"/>
		<path class="st0" d="M558.3,217.3v2.2c1.2-1.5,2.9-2.5,4.8-2.5c3.7,0,6.5,3,6.5,7.2s-2.8,7.2-6.5,7.2c-1.8,0-3.5-0.9-4.7-2.3v6.8
			h-2.6v-18.4L558.3,217.3L558.3,217.3z M562.6,229c2.5,0,4.2-2,4.2-4.7c0-2.8-1.8-4.7-4.2-4.7c-2.4,0-4.3,2-4.3,4.7
			C558.3,227,560.2,229,562.6,229z"/>
		<path class="st0" d="M571.6,224.2c0-4.1,3.2-7.2,7.3-7.2s7.3,3.1,7.3,7.2c0,4-3.2,7.2-7.3,7.2S571.6,228.3,571.6,224.2z M579,229
			c2.6,0,4.6-2.1,4.6-4.7c0-2.7-2-4.7-4.6-4.7s-4.6,2.1-4.6,4.7C574.3,226.9,576.4,229,579,229z"/>
		<path class="st0" d="M596.1,219.6c-2.5,0-4.1,1.9-4.1,4.1v7.5h-2.6v-13.8h2.5v2.1c1-1.4,2.7-2.4,4.5-2.4c0.4,0,0.9,0,1.2,0.1v2.6
			C597.2,219.6,596.7,219.6,596.1,219.6L596.1,219.6z"/>
		<path class="st0" d="M605.8,228.9c0.6,0,1.1,0,1.7-0.2v2.4c-0.3,0.1-1,0.2-1.8,0.2c-3,0-4.4-1.5-4.4-4.3v-7.3h-2.8v-2.5h2.8v-3.6
			h2.6v3.6h3.9v2.5h-3.9v7.3C603.9,228.2,604.3,228.9,605.8,228.9L605.8,228.9z"/>
		<path class="st0" d="M623.4,231.1h-2.5v-2.2c-1,1.5-2.7,2.5-4.5,2.5c-3.3,0-5.9-2.1-5.9-6.4v-7.6h2.6v7.6c0,2.5,1.7,4,3.8,4
			c2.4,0,3.9-1.9,3.9-4.2v-7.4h2.6L623.4,231.1L623.4,231.1z"/>
		<path class="st0" d="M627.8,217.3h2.5v2.2c1-1.5,2.7-2.5,4.5-2.5c3.3,0,5.9,2.1,5.9,6.4v7.6h-2.6v-7.6c0-2.5-1.7-4-3.8-4
			c-2.4,0-3.9,1.9-3.9,4.2v7.4h-2.6L627.8,217.3L627.8,217.3z"/>
		<path class="st0" d="M644.8,211.8h2.9v3h-2.9V211.8z M647.5,217.3v13.8h-2.6v-13.8H647.5z"/>
		<path class="st0" d="M652.8,227.1v-7.3H650v-2.5h2.8v-3.6h2.6v3.6h6.9v2.5h-6.9v7.3c0,1.1,0.4,1.8,2,1.8c0.7,0,1.2,0,1.8-0.2v2.4
			c-0.4,0.1-1.1,0.2-1.9,0.2C654.3,231.4,652.8,229.9,652.8,227.1L652.8,227.1z"/>
		<path class="st0" d="M662,211.8h2.9v3H662V211.8z M664.8,217.3v13.8h-2.6v-13.8H664.8z"/>
		<path class="st0" d="M675,217.1c4.5,0,7.3,3.2,7,8.2h-11.3c0.4,2.1,2.2,3.7,4.4,3.7c1.9,0,3.1-0.8,3.8-2h2.7
			c-0.9,2.6-3.5,4.4-6.5,4.4c-4.1,0-7.1-3-7.1-7.2S670.9,217.1,675,217.1L675,217.1z M679.2,223c-0.2-2.2-2-3.6-4.2-3.6
			c-2.3,0-3.9,1.5-4.2,3.6H679.2z"/>
		<path class="st0" d="M683.7,226.8h2.6c0.5,1.6,1.8,2.3,3.9,2.3c2,0,3.3-0.7,3.3-1.7c0-1-0.6-1.6-2.9-2l-1.6-0.3c-3.4-0.6-5-2-5-4
			c0-2.5,2.3-4.1,5.8-4.1c3.1,0,5.5,1.5,6.1,4.1h-2.8c-0.5-1.2-1.9-1.7-3.3-1.7c-1.9,0-3.1,0.6-3.1,1.6c0,0.9,0.8,1.4,2.7,1.7
			l1.6,0.3c3.9,0.7,5.1,2.1,5.1,4.3c0,2.4-2.3,4.1-6,4.1C686.8,231.4,684.1,229.7,683.7,226.8L683.7,226.8z"/>
	</g>
	
		<linearGradient id="SVGID_1_" gradientUnits="userSpaceOnUse" x1="195.7475" y1="200.3836" x2="31.0997" y2="65.0195" gradientTransform="matrix(1 0 0 -1 0 236.449)">
		<stop  offset="0" style="stop-color:#03C0BA"/>
		<stop  offset="1" style="stop-color:#1AA355"/>
	</linearGradient>
	<path class="st1" d="M121.6,0.4H0v94.3c0,52.4,42.6,95,95,95h9.8v-17H95c-43,0-78-35-78-78V17.4h104.6c43,0,78,35,78,78v77.3h-20.6
		v18.9L160,172.6h-6.6c-15,0-27.2-12.2-27.2-27.2v-16.9h8.8c14.2,0,25.7-11.5,25.7-25.7V77.2h-25.5c-4.1,0-8.1,1-11.5,2.7
		c-5.2-13.6-18.3-23.3-33.7-23.3H54.1v35.8c0,19.9,16.2,36.1,36.1,36.1h18.9v16.9c0,24.2,19.6,44,43.8,44.2l43,43v-43h20.6V95.3
		C216.6,43,174,0.4,121.6,0.4L121.6,0.4z M126.4,103c0-4.8,3.9-8.7,8.7-8.7h8.5v8.5c0,4.8-3.9,8.7-8.7,8.7h-8.5V103z M109,111.5
		H90.2c-10.5,0-19.1-8.6-19.1-19.1V73.6h18.8c10.5,0,19.1,8.6,19.1,19.1V111.5z"/>
</g>
</svg>
