<?xml version="1.0" encoding="utf-8"?>
<!-- Generator: Adobe Illustrator 27.6.1, SVG Export Plug-In . SVG Version: 6.00 Build 0)  -->
<svg version="1.1" id="_Слой_1" xmlns="http://www.w3.org/2000/svg" xmlns:xlink="http://www.w3.org/1999/xlink" x="0px"
	 y="0px" viewBox="0 0 516.1 236.5" style="enable-background:new 0 0 516.1 236.5;" xml:space="preserve">
<style type="text/css">
	.st0{fill:#FFD300;}
	.st1{fill:#0088CF;}
	.st2{fill:#37B34A;}
</style>
<g>
	<g>
		<path class="st0" d="M189,51.4v101.5c0,46.1-37.5,83.6-83.5,83.6l0,0v-53l0,0c16.8,0,30.5-13.7,30.5-30.6V51.4H189z"/>
		<path class="st1" d="M189,0.1v101.5c0,46.1-37.5,83.6-83.5,83.6l0,0c-46.1,0-83.5-37.5-83.5-83.6v-39h53v39
			c0,16.9,13.7,30.6,30.5,30.6l0,0c16.8,0,30.5-13.7,30.5-30.6V0.1H189z"/>
		<polygon class="st2" points="74.9,22 74.9,56.4 48.4,56.4 21.9,56.4 21.9,22 48.4,0 		"/>
		<path class="st2" d="M21.9,22.1c-5.7,0.4-11.6-1.5-15.9-5.9C1.6,11.8-0.3,6,0.1,0.3C5.8-0.1,11.7,1.8,16,6.2
			C20.4,10.5,22.3,16.4,21.9,22.1z"/>
		<path class="st2" d="M21.9,22.1c0.3,4-1.1,8-4.1,11.1c-3,3-7.1,4.4-11.1,4.1c-0.3-4,1.1-8,4.1-11.1C13.9,23.1,18,21.8,21.9,22.1z"
			/>
	</g>
	<g>
		<path class="st1" d="M225.6,56.4l2.8,8.4c0.2,0.5,0.6,0.7,1,0.7h5.2l3.1-9.2h5.6l-5.5,16.1c-0.9,2.5-3.3,4.4-6,4.4h-6v-4.6h5.8
			c0.6,0,1.1-0.4,1.3-1l0.3-0.9h-3.9c-3.3,0-5-1.4-6-4.3l-3.3-9.7L225.6,56.4L225.6,56.4z"/>
		<path class="st1" d="M251.3,56.4v7.2h4.8l4.9-7.2h6.3l-6.6,9.5l7.1,11h-6.5l-5-8.3h-5v8.3h-5.4V56.4L251.3,56.4L251.3,56.4z"/>
		<path class="st1" d="M282.6,56.4c4.9,0,8.6,3.3,8.6,8.2s-3.6,8-8.6,8h-6.7V77h-5.5V56.5L282.6,56.4L282.6,56.4z M275.9,67.6h6.5
			c1.9,0,3.3-1,3.3-3s-1.4-3.2-3.3-3.2h-6.5V67.6z"/>
		<path class="st1" d="M308.6,56.4l8.7,20.5h-5.8l-1.3-3h-11.4l-1.3,3h-5.9l8.9-20.5L308.6,56.4L308.6,56.4z M300.9,69.2h7.2
			l-3.1-7.9h-0.9L300.9,69.2z"/>
		<path class="st1" d="M321.3,51.7c0,1.6-1.4,3-2.9,3c-1.6,0-2.9-1.4-2.9-3s1.4-2.8,2.9-2.8C319.9,48.9,321.3,50.2,321.3,51.7z
			 M325.5,56.4v20.5h-5.4V56.4L325.5,56.4L325.5,56.4z M330.1,51.7c0,1.6-1.4,3-2.9,3s-2.9-1.4-2.9-3s1.3-2.8,2.9-2.8
			C328.7,48.9,330.1,50.2,330.1,51.7z"/>
		<path class="st1" d="M334.5,56.4v7.5h10.1v-7.5h5.5v20.5h-5.5v-8.1h-10.1v8.1H329V56.4L334.5,56.4L334.5,56.4z"/>
		<path class="st1" d="M371.1,64.2c-1.5-2.2-3.3-3.4-6.5-3.4c-3.6,0-6,2.3-6,5.9c0,3.6,2.5,5.9,6,5.9c3.1,0,5-1.2,6.4-3.4l4.2,2.4
			c-2.1,3.9-5.7,5.8-10.6,5.8c-6.6,0-11.5-4.1-11.5-10.8c0-6.6,5-10.8,11.5-10.8c5,0,8.5,2,10.6,5.8L371.1,64.2z"/>
		<path class="st1" d="M384,56.4v4.4h6.4c4.9,0,8.6,3,8.6,7.9s-3.7,8.2-8.6,8.2h-11.9V56.4L384,56.4L384,56.4z M384,72h6
			c2.4,0,3.5-1.1,3.5-3.3s-1.1-3-3.5-3h-6V72z"/>
		<path class="st1" d="M407.4,56.4v7.2h4.8l4.9-7.2h6.3l-6.6,9.5l7.1,11h-6.5l-5-8.3h-5v8.3H402V56.4L407.4,56.4L407.4,56.4z"/>
		<path class="st1" d="M431.9,56.4v13l10.8-13h5.2v20.5h-5.4V64l-10.8,12.9h-5.2V56.4L431.9,56.4L431.9,56.4z"/>
		<path class="st1" d="M456.8,56.4v13l10.8-13h5.2v20.5h-5.4V64l-10.8,12.9h-5.2V56.4L456.8,56.4L456.8,56.4z M468.6,53.4
			c-2.6,2.1-4.3,2.4-6.5,2.4s-3.9-0.3-6.5-2.4l2.5-2.9c1.1,0.8,2,1.2,3.9,1.2s2.9-0.4,4-1.2L468.6,53.4z"/>
		<path class="st1" d="M239.9,90.3v4.9h-13.4v2.7h12.1v4.9h-12.1v2.9h13.9v5H221V90.2h18.9V90.3z"/>
		<path class="st1" d="M249.1,90.3v7.2h4.8l4.9-7.2h6.3l-6.6,9.5l7.1,11h-6.5l-5-8.3h-5v8.3h-5.4V90.3H249.1z"/>
		<path class="st1" d="M278.1,111.3c-6.1,0-11.5-4.3-11.5-10.8c0-6.4,5.4-10.8,11.5-10.8s11.5,4.3,11.5,10.8
			C289.6,107,284.2,111.3,278.1,111.3z M278.1,106.7c3.4,0,6-2.4,6-6.1s-2.7-6.1-6-6.1c-3.4,0-6.1,2.4-6.1,6.1
			S274.7,106.7,278.1,106.7z"/>
		<path class="st1" d="M314.3,90.3v20.5h-5.5V95.2h-6.6l-1.9,10.2c-0.7,3.8-3,5.4-6.5,5.4H291v-4.9h2.6c0.7,0,1.2-0.4,1.4-1.2
			l2.7-14.4H314.3z"/>
		<path class="st1" d="M329.2,111.3c-6.1,0-11.5-4.3-11.5-10.8c0-6.4,5.4-10.8,11.5-10.8s11.5,4.3,11.5,10.8
			C340.7,107,335.3,111.3,329.2,111.3z M329.2,106.7c3.4,0,6-2.4,6-6.1s-2.7-6.1-6-6.1c-3.4,0-6.1,2.4-6.1,6.1
			S325.8,106.7,329.2,106.7z"/>
		<path class="st1" d="M363.2,90.3v4.9h-13.7v15.6h-5.4V90.3H363.2z"/>
		<path class="st1" d="M371.5,90.3v20.5H366V90.3H371.5z"/>
		<path class="st1" d="M380.6,90.3v7.8c0,2.4,1.2,3.6,3.5,3.6h5.8V90.3h5.5v20.5h-5.5v-4.2h-6.5c-4.9,0-8.3-3.3-8.3-8.1v-8.2
			L380.6,90.3L380.6,90.3z"/>
		<path class="st1" d="M404.4,90.3v7.5h10.1v-7.5h5.5v20.5h-5.5v-8.1h-10.1v8.1h-5.5V90.3H404.4z"/>
		<path class="st1" d="M428.8,90.3v13l10.8-13h5.2v20.5h-5.4V97.9l-10.8,12.9h-5.2V90.3H428.8z"/>
		<path class="st1" d="M453.7,90.3v13l10.8-13h5.2v20.5h-5.4V97.9l-10.8,12.9h-5.2V90.3H453.7z M465.5,87.2
			c-2.6,2.1-4.3,2.4-6.5,2.4s-3.9-0.3-6.5-2.4l2.5-2.9c1.1,0.8,2,1.2,3.9,1.2s2.9-0.4,4-1.2L465.5,87.2z"/>
		<path class="st1" d="M237.1,124.1l8.7,20.5h-5.7l-1.3-3h-11.4l-1.3,3h-5.9l8.9-20.5H237.1z M229.4,136.9h7.2l-3.1-7.9h-0.9
			L229.4,136.9z"/>
		<path class="st1" d="M254.1,124.1v7.5h10v-7.5h5.5v20.5h-5.5v-8.1h-10v8.1h-5.5v-20.5H254.1z"/>
		<path class="st1" d="M293.9,124.1v4.9h-8v15.6h-5.5V129h-8v-4.9H293.9z"/>
		<path class="st1" d="M302.2,124.1v13l10.8-13h5.2v20.5h-5.4v-12.9L302,144.6h-5.2v-20.5H302.2z"/>
		<path class="st1" d="M327.1,124.1v7.2h4.8l4.9-7.2h6.3l-6.6,9.5l7.1,11h-6.5l-5-8.3h-5v8.3h-5.4v-20.5H327.1z"/>
		<path class="st1" d="M358.3,124.1c4.9,0,8.6,3.3,8.6,8.2c0,4.9-3.6,8-8.6,8h-6.7v4.4h-5.5v-20.5h12.2V124.1z M351.6,135.3h6.5
			c1.9,0,3.3-1,3.3-3s-1.4-3.2-3.3-3.2h-6.5V135.3z"/>
		<path class="st1" d="M375.2,124.1v13l10.8-13h5.2v20.5h-5.4v-12.9L375,144.6h-5.2v-20.5H375.2z"/>
		<path class="st1" d="M408.7,131.6c0.7,0,1-0.4,1-1.2c0-1.2-1.4-1.9-4.6-1.9c-3.7,0-5.3,0.4-8,2.2l-2.3-3.9c3.3-2.3,6.4-3,10.2-3
			c3.7,0,6.4,0.7,8.1,2c1.4,1.1,2.1,2.6,2.1,4.6c0,1.1-0.4,2.3-1.2,2.9c1.6,1.1,2.5,2.6,2.5,4.9c0,2.1-1,3.8-2.9,5.2
			c-1.9,1.4-4.9,1.9-8.5,1.9c-4.6,0-7.6-0.9-11-3.3l2.5-4c2.4,1.6,5.4,2.5,8.8,2.5c3.4,0,5.6-0.5,5.6-2.6c0-1-0.6-1.4-2.4-1.4h-8.3
			v-4.9H408.7z"/>
		<path class="st1" d="M430.9,145.2c-6.1,0-11.5-4.3-11.5-10.8c0-6.4,5.4-10.8,11.5-10.8s11.5,4.3,11.5,10.8
			C442.4,140.8,437,145.2,430.9,145.2z M430.9,140.5c3.4,0,6-2.4,6-6.1s-2.7-6.1-6-6.1c-3.4,0-6.1,2.4-6.1,6.1
			S427.5,140.5,430.9,140.5z"/>
		<path class="st1" d="M459.1,124.1c3.7,0,6.4,2.2,6.4,5.7c0,1.3-0.5,2.6-1.4,3.2c1.8,1,2.8,2.6,2.8,5.2c0,3.6-3,6.5-6.7,6.5h-14.4
			v-20.5h13.3V124.1z M451.2,131.8h7.8c0.6,0,1.1-0.7,1.1-1.4c0-0.5-0.3-1.4-1.3-1.4h-7.6V131.8z M451.2,139.7h8.8
			c0.9,0,1.5-0.6,1.5-1.6c0-0.9-0.7-1.6-1.7-1.6h-8.6V139.7z"/>
		<path class="st1" d="M475.2,124.1v13l10.8-13h5.2v20.5h-5.4v-12.9L475,144.6h-5.2v-20.5H475.2z"/>
		<path class="st1" d="M500.1,124.1v13l10.8-13h5.2v20.5h-5.4v-12.9l-10.8,12.9h-5.2v-20.5H500.1z M511.9,121.1
			c-2.6,2.1-4.3,2.4-6.5,2.4s-3.9-0.3-6.5-2.4l2.5-2.9c1.1,0.8,2,1.2,3.9,1.2s2.9-0.4,4-1.2L511.9,121.1z"/>
		<path class="st1" d="M232.6,158h5.5v2.1h3.7c4.9,0,8.6,3.3,8.6,8.2c0,4.9-3.7,8-8.6,8h-3.7v2.2h-5.5v-2.2h-3.7
			c-4.9,0-8.6-3.1-8.6-8s3.7-8.2,8.6-8.2h3.7V158z M229.1,165.1c-2.1,0-3.3,1-3.3,3.1c0,2,1.3,3,3.3,3h3.5V165h-3.5V165.1z
			 M238.1,171.3h3.5c2,0,3.3-1,3.3-3c0-2.1-1.2-3.1-3.3-3.1h-3.5V171.3z"/>
		<path class="st1" d="M264.5,179c-6.1,0-11.5-4.3-11.5-10.8c0-6.4,5.4-10.8,11.5-10.8s11.5,4.3,11.5,10.8S270.6,179,264.5,179z
			 M264.5,174.4c3.4,0,6-2.4,6-6.1s-2.7-6.1-6-6.1c-3.4,0-6.1,2.4-6.1,6.1S261.1,174.4,264.5,174.4z"/>
		<path class="st1" d="M284.8,158v7.5h10.1V158h5.5v20.5h-5.5v-8.1h-10.1v8.1h-5.5V158H284.8z"/>
		<path class="st1" d="M325.6,158v15.6h2.3v8.6h-4.7l-0.4-3.7h-14.2l-0.4,3.7h-4.8v-8.6h2.5l3-15.6H325.6z M311.6,173.6h8.6v-10.9
			h-6.8L311.6,173.6z"/>
	</g>
</g>
</svg>
