<?xml version="1.0" encoding="utf-8"?>
<!-- Generator: Adobe Illustrator 27.6.1, SVG Export Plug-In . SVG Version: 6.00 Build 0)  -->
<svg version="1.1" id="_Слой_1" xmlns="http://www.w3.org/2000/svg" xmlns:xlink="http://www.w3.org/1999/xlink" x="0px"
	 y="0px" viewBox="0 0 549.1 291" style="enable-background:new 0 0 549.1 291;" xml:space="preserve">
<style type="text/css">
	.st0{fill:#0088CF;}
	.st1{fill:#FFD300;}
	.st2{fill:#37B34A;}
</style>
<g>
	<g>
		<path class="st0" d="M277.6,69.4v12.9c0,4.5,2,7.1,6.3,7.1s6.3-2.6,6.3-7.1V69.4h6.8v12.9c0,8.4-5.1,13-13,13c-8,0-13-4.7-13-13
			V69.4H277.6z"/>
		<path class="st0" d="M307.6,69.4v8.9h5.9l6.1-8.9h7.8l-8.1,11.7l8.7,13.6h-8l-6.2-10.2h-6.1v10.2H301V69.4H307.6z"/>
		<path class="st0" d="M346.1,69.4c6.1,0,10.6,4.1,10.6,10.1c0,3.7-1.7,6.6-4.6,8.3l3.8,6.9h-7.3l-2.9-5.4h-7.9v5.4h-6.7V69.4H346.1
			z M337.9,83.1h8c2.4,0,4.1-1.2,4.1-3.7c0-2.4-1.7-3.9-4.1-3.9h-8V83.1z"/>
		<path class="st0" d="M380,69.4l10.7,25.3h-7.1L382,91h-14l-1.6,3.7h-7.2l11-25.3H380z M370.5,85.1h8.9l-3.9-9.7h-1L370.5,85.1z"/>
		<path class="st0" d="M400.8,69.4v25.3h-6.7V69.4H400.8z"/>
		<path class="st0" d="M411.2,69.4l13.5,15.3V69.4h6.7v25.3h-6.2l-13.5-15.3v15.3h-6.6V69.4H411.2z"/>
		<path class="st0" d="M442.5,69.4v25.3h-6.7V69.4H442.5z"/>
		<path class="st0" d="M466.6,69.4l10.7,25.3h-7.1l-1.6-3.7h-14l-1.6,3.7h-7.2l11-25.3H466.6z M457.1,85.1h8.9l-3.8-9.7h-1.1
			L457.1,85.1z"/>
		<path class="st0" d="M486.9,69.4l13.5,15.3V69.4h6.7v25.3h-6.2l-13.5-15.3v15.3h-6.6V69.4H486.9z"/>
		<path class="st0" d="M294.4,111.1v6.1h-16.5v3.3h14.9v6.1h-14.9v3.6H295v6.2h-23.9v-25.3L294.4,111.1L294.4,111.1z"/>
		<path class="st0" d="M320.3,120.6c-1.9-2.7-4.1-4.2-8-4.2c-4.5,0-7.5,2.8-7.5,7.3c0,4.4,3.1,7.3,7.5,7.3c3.8,0,6.2-1.5,7.9-4.2
			l5.2,2.9c-2.6,4.8-7,7.2-13,7.2c-8.1,0-14.2-5.1-14.2-13.3c0-8.1,6.2-13.3,14.2-13.3c6.1,0,10.5,2.4,13.1,7.2L320.3,120.6z"/>
		<path class="st0" d="M342.9,137c-7.5,0-14.2-5.3-14.2-13.3s6.7-13.3,14.2-13.3s14.2,5.3,14.2,13.3S350.5,137,342.9,137z
			 M342.9,131.3c4.2,0,7.5-2.9,7.5-7.5s-3.3-7.5-7.5-7.5s-7.5,2.9-7.5,7.5S338.7,131.3,342.9,131.3z"/>
		<path class="st0" d="M286,152.8c6.1,0,10.6,4.1,10.6,10.1c0,3.7-1.7,6.6-4.6,8.3l3.8,6.9h-7.3l-2.9-5.4h-7.9v5.4H271v-25.3H286z
			 M277.8,166.5h8c2.4,0,4.1-1.2,4.1-3.7c0-2.4-1.7-3.9-4.1-3.9h-8V166.5z"/>
		<path class="st0" d="M323.3,152.8v6.1h-16.5v3.3h14.9v6.1h-14.9v3.6h17.1v6.2H300v-25.3L323.3,152.8L323.3,152.8z"/>
		<path class="st0" d="M349.9,161.1c-2.9-2.1-6-3-9.9-3c-4.3,0-5.3,1-5.3,2.1s1.1,1.2,2.6,1.4l7.4,0.8c5.6,0.7,9,2.9,9,7.8
			c0,5.8-5.8,8.4-13.3,8.4c-5.3,0-9.2-1.1-13.3-4.3l3.2-5.2c3.4,2.4,6.9,3.7,10.8,3.7c3.5,0,6.2-0.8,6.2-2.5c0-0.9-0.2-1.3-1.8-1.5
			l-8.7-1c-5.3-0.6-8.5-2.7-8.5-7.6c0-5.5,5.3-8.1,11.9-8.1c4.8,0,9.1,0.9,13.2,4L349.9,161.1z"/>
		<path class="st0" d="M379.4,162.3c-1.9-2.7-4.1-4.2-8-4.2c-4.5,0-7.5,2.8-7.5,7.3c0,4.4,3.1,7.3,7.5,7.3c3.8,0,6.2-1.5,7.9-4.2
			l5.2,2.9c-2.6,4.8-7,7.2-13,7.2c-8.1,0-14.2-5.1-14.2-13.3c0-8.1,6.2-13.3,14.2-13.3c6.1,0,10.5,2.4,13.1,7.2L379.4,162.3z"/>
		<path class="st0" d="M395,152.8v12.9c0,4.5,2,7.1,6.3,7.1s6.3-2.6,6.3-7.1v-12.9h6.8v12.9c0,8.4-5.1,13-13,13c-8,0-13-4.7-13-13
			v-12.9H395z"/>
		<path class="st0" d="M441.6,152.8v6.1h-16.5v3.3H440v6.1h-14.9v3.6h17.1v6.2h-23.9v-25.3L441.6,152.8L441.6,152.8z"/>
		<path class="st0" d="M271.1,194.5h23.5v6.1h-16.8v3.9h14.8v6.1h-14.8v9.2h-6.7V194.5z"/>
		<path class="st0" d="M312.1,220.4c-7.5,0-14.2-5.3-14.2-13.3c0-7.9,6.7-13.3,14.2-13.3s14.2,5.4,14.2,13.3
			C326.3,215,319.6,220.4,312.1,220.4z M312.1,214.7c4.2,0,7.5-2.9,7.5-7.5s-3.3-7.5-7.5-7.5s-7.5,2.9-7.5,7.5
			S307.9,214.7,312.1,214.7z"/>
		<path class="st0" d="M336.9,194.5v12.9c0,4.5,2,7.1,6.3,7.1s6.3-2.6,6.3-7.1v-12.9h6.8v12.9c0,8.4-5.1,13-13,13c-8,0-13-4.7-13-13
			v-12.9H336.9z"/>
		<path class="st0" d="M366.4,194.5l13.5,15.3v-15.3h6.7v25.3h-6.2l-13.5-15.3v15.3h-6.6v-25.3H366.4z"/>
		<path class="st0" d="M404.2,194.5c6.8,0,13.6,5.2,13.6,12.6c0,7.5-6.8,12.7-13.6,12.7h-13.3v-25.3L404.2,194.5L404.2,194.5z
			 M397.6,213.6h6.7c3.8,0,6.8-2.8,6.8-6.5s-3-6.5-6.8-6.5h-6.7V213.6z"/>
		<path class="st0" d="M440.2,194.5l10.7,25.3h-7.1l-1.6-3.7h-14l-1.6,3.7h-7.1l11-25.3H440.2z M430.7,210.2h8.9l-3.8-9.7h-1.1
			L430.7,210.2z"/>
		<path class="st0" d="M475.9,194.5v6h-9.8v19.2h-6.8v-19.2h-9.8v-6H475.9z"/>
		<path class="st0" d="M486.1,194.5v25.3h-6.7v-25.3H486.1z"/>
		<path class="st0" d="M504.5,220.4c-7.5,0-14.2-5.3-14.2-13.3c0-7.9,6.7-13.3,14.2-13.3s14.2,5.4,14.2,13.3S512,220.4,504.5,220.4z
			 M504.5,214.7c4.2,0,7.5-2.9,7.5-7.5s-3.3-7.5-7.5-7.5s-7.5,2.9-7.5,7.5S500.3,214.7,504.5,214.7z"/>
		<path class="st0" d="M528.9,194.5l13.5,15.3v-15.3h6.7v25.3h-6.2l-13.5-15.3v15.3h-6.6v-25.3H528.9z"/>
	</g>
	<g>
		<path class="st1" d="M232.7,63.1v125c0,56.7-46.2,102.9-102.9,102.9l0,0v-65.2l0,0c20.7,0,37.6-16.9,37.6-37.6v-125h65.3V63.1z"/>
		<path class="st0" d="M232.7,0.1v125c0,56.7-46.1,102.9-102.9,102.9l0,0c-56.7,0-102.9-46.1-102.9-102.9v-48h65.2v48
			c0,20.8,16.9,37.6,37.6,37.6l0,0c20.7,0,37.6-16.9,37.6-37.6V0.1L232.7,0.1L232.7,0.1z"/>
		<polygon class="st2" points="92.2,27 92.2,69.4 59.6,69.4 27,69.4 27,27 59.6,0 		"/>
		<path class="st2" d="M27,27.1c-7,0.5-14.2-1.9-19.6-7.3C2,14.4-0.4,7.2,0.1,0.2c7-0.5,14.3,1.9,19.6,7.3
			C25.1,12.8,27.5,20.1,27,27.1z"/>
		<path class="st2" d="M27,27.1c0.4,4.9-1.3,9.9-5,13.6c-3.7,3.7-8.7,5.4-13.6,5c-0.4-4.9,1.3-9.9,5-13.6
			C17.1,28.4,22.1,26.7,27,27.1z"/>
	</g>
</g>
</svg>
