<?xml version="1.0" encoding="utf-8"?>
<!-- Generator: Adobe Illustrator 27.6.1, SVG Export Plug-In . SVG Version: 6.00 Build 0)  -->
<svg version="1.1" id="_Слой_1" xmlns="http://www.w3.org/2000/svg" xmlns:xlink="http://www.w3.org/1999/xlink" x="0px"
	 y="0px" viewBox="0 0 841.9 595.3" style="enable-background:new 0 0 841.9 595.3;" xml:space="preserve">
<style type="text/css">
	.st0{fill:#FFD300;}
	.st1{fill:#0088CF;}
	.st2{fill:#37B34A;}
</style>
<g>
	<g>
		<path class="st0" d="M351.9,230.8v101.5c0,46.1-37.5,83.6-83.5,83.6h0v-53h0c16.8,0,30.5-13.7,30.5-30.6V230.8H351.9z"/>
		<path class="st1" d="M351.9,179.5v101.5c0,46.1-37.5,83.6-83.5,83.6h0c-46.1,0-83.5-37.5-83.5-83.6v-39h53v39
			c0,16.9,13.7,30.6,30.5,30.6h0c16.8,0,30.5-13.7,30.5-30.6V179.5H351.9z"/>
		<polygon class="st2" points="237.8,201.4 237.8,235.8 211.3,235.8 184.8,235.8 184.8,201.4 211.3,179.4 		"/>
		<path class="st2" d="M184.8,201.5c-5.7,0.4-11.6-1.5-15.9-5.9c-4.4-4.4-6.3-10.2-5.9-15.9c5.7-0.4,11.6,1.5,15.9,5.9
			C183.3,189.9,185.2,195.8,184.8,201.5z"/>
		<path class="st2" d="M184.8,201.5c0.3,4-1.1,8-4.1,11.1c-3,3-7.1,4.4-11.1,4.1c-0.3-4,1.1-8,4.1-11.1
			C176.8,202.5,180.9,201.2,184.8,201.5z"/>
	</g>
	<g>
		<path class="st1" d="M388.5,235.8l2.8,8.4c0.2,0.5,0.6,0.7,1,0.7h5.2l3.1-9.2h5.6l-5.5,16.1c-0.9,2.5-3.3,4.4-6,4.4h-6v-4.6h5.8
			c0.6,0,1.1-0.4,1.3-1l0.3-0.9h-3.9c-3.3,0-5-1.4-6-4.3l-3.3-9.7H388.5z"/>
		<path class="st1" d="M414.2,235.8v7.2h4.8l4.9-7.2h6.3l-6.6,9.5l7.1,11h-6.5l-5-8.3h-5v8.3h-5.4v-20.5H414.2z"/>
		<path class="st1" d="M445.5,235.8c4.9,0,8.6,3.3,8.6,8.2c0,4.9-3.6,8-8.6,8h-6.7v4.4h-5.5v-20.5H445.5z M438.8,247h6.5
			c1.9,0,3.3-1,3.3-3c0-2-1.4-3.2-3.3-3.2h-6.5V247z"/>
		<path class="st1" d="M471.5,235.8l8.7,20.5h-5.8l-1.3-3h-11.4l-1.3,3h-5.9l8.9-20.5H471.5z M463.8,248.6h7.2l-3.1-7.9h-0.9
			L463.8,248.6z"/>
		<path class="st1" d="M484.2,231.1c0,1.6-1.4,3-2.9,3c-1.6,0-2.9-1.4-2.9-3s1.4-2.8,2.9-2.8C482.8,228.3,484.2,229.6,484.2,231.1z
			 M488.4,235.8v20.5H483v-20.5H488.4z M493,231.1c0,1.6-1.4,3-2.9,3c-1.5,0-2.9-1.4-2.9-3s1.3-2.8,2.9-2.8
			C491.6,228.3,493,229.6,493,231.1z"/>
		<path class="st1" d="M497.4,235.8v7.5h10.1v-7.5h5.5v20.5h-5.5v-8.1h-10.1v8.1h-5.5v-20.5H497.4z"/>
		<path class="st1" d="M534,243.6c-1.5-2.2-3.3-3.4-6.5-3.4c-3.6,0-6,2.3-6,5.9c0,3.6,2.5,5.9,6,5.9c3.1,0,5-1.2,6.4-3.4l4.2,2.4
			c-2.1,3.9-5.7,5.8-10.6,5.8c-6.6,0-11.5-4.1-11.5-10.8c0-6.6,5-10.8,11.5-10.8c5,0,8.5,2,10.6,5.8L534,243.6z"/>
		<path class="st1" d="M546.9,235.8v4.4h6.4c4.9,0,8.6,3,8.6,7.9c0,4.9-3.7,8.2-8.6,8.2h-11.9v-20.5H546.9z M546.9,251.4h6
			c2.4,0,3.5-1.1,3.5-3.3c0-2.2-1.1-3-3.5-3h-6V251.4z"/>
		<path class="st1" d="M570.3,235.8v7.2h4.8l4.9-7.2h6.3l-6.6,9.5l7.1,11h-6.5l-5-8.3h-5v8.3h-5.4v-20.5H570.3z"/>
		<path class="st1" d="M594.8,235.8v13l10.8-13h5.2v20.5h-5.4v-12.9l-10.8,12.9h-5.2v-20.5H594.8z"/>
		<path class="st1" d="M619.7,235.8v13l10.8-13h5.2v20.5h-5.4v-12.9l-10.8,12.9h-5.2v-20.5H619.7z M631.5,232.8
			c-2.6,2.1-4.3,2.4-6.5,2.4s-3.9-0.3-6.5-2.4l2.5-2.9c1.1,0.8,2,1.2,3.9,1.2s2.9-0.4,4-1.2L631.5,232.8z"/>
		<path class="st1" d="M402.8,269.7v4.9h-13.4v2.7h12.1v4.9h-12.1v2.9h13.9v5h-19.4v-20.5H402.8z"/>
		<path class="st1" d="M412,269.7v7.2h4.8l4.9-7.2h6.3l-6.6,9.5l7.1,11H422l-5-8.3h-5v8.3h-5.4v-20.5H412z"/>
		<path class="st1" d="M441,290.7c-6.1,0-11.5-4.3-11.5-10.8c0-6.4,5.4-10.8,11.5-10.8c6.1,0,11.5,4.3,11.5,10.8
			C452.5,286.4,447.1,290.7,441,290.7z M441,286.1c3.4,0,6-2.4,6-6.1c0-3.7-2.7-6.1-6-6.1c-3.4,0-6.1,2.4-6.1,6.1
			C434.9,283.7,437.6,286.1,441,286.1z"/>
		<path class="st1" d="M477.2,269.7v20.5h-5.5v-15.6h-6.6l-1.9,10.2c-0.7,3.8-3,5.4-6.5,5.4h-2.8v-4.9h2.6c0.7,0,1.2-0.4,1.4-1.2
			l2.7-14.4H477.2z"/>
		<path class="st1" d="M492.1,290.7c-6.1,0-11.5-4.3-11.5-10.8c0-6.4,5.4-10.8,11.5-10.8c6.1,0,11.5,4.3,11.5,10.8
			C503.6,286.4,498.2,290.7,492.1,290.7z M492.1,286.1c3.4,0,6-2.4,6-6.1c0-3.7-2.7-6.1-6-6.1c-3.4,0-6.1,2.4-6.1,6.1
			C486,283.7,488.7,286.1,492.1,286.1z"/>
		<path class="st1" d="M526.1,269.7v4.9h-13.7v15.6H507v-20.5H526.1z"/>
		<path class="st1" d="M534.4,269.7v20.5h-5.5v-20.5H534.4z"/>
		<path class="st1" d="M543.5,269.7v7.8c0,2.4,1.2,3.6,3.5,3.6h5.8v-11.4h5.5v20.5h-5.5V286h-6.5c-4.9,0-8.3-3.3-8.3-8.1v-8.2H543.5
			z"/>
		<path class="st1" d="M567.3,269.7v7.5h10.1v-7.5h5.5v20.5h-5.5v-8.1h-10.1v8.1h-5.5v-20.5H567.3z"/>
		<path class="st1" d="M591.7,269.7v13l10.8-13h5.2v20.5h-5.4v-12.9l-10.8,12.9h-5.2v-20.5H591.7z"/>
		<path class="st1" d="M616.6,269.7v13l10.8-13h5.2v20.5h-5.4v-12.9l-10.8,12.9h-5.2v-20.5H616.6z M628.4,266.6
			c-2.6,2.1-4.3,2.4-6.5,2.4s-3.9-0.3-6.5-2.4l2.5-2.9c1.1,0.8,2,1.2,3.9,1.2s2.9-0.4,4-1.2L628.4,266.6z"/>
		<path class="st1" d="M400,303.5l8.7,20.5H403l-1.3-3h-11.4l-1.3,3h-5.9l8.9-20.5H400z M392.3,316.3h7.2l-3.1-7.9h-0.9L392.3,316.3
			z"/>
		<path class="st1" d="M417,303.5v7.5H427v-7.5h5.5v20.5H427v-8.1H417v8.1h-5.5v-20.5H417z"/>
		<path class="st1" d="M456.8,303.5v4.9h-8v15.6h-5.5v-15.6h-8v-4.9H456.8z"/>
		<path class="st1" d="M465.1,303.5v13l10.8-13h5.2v20.5h-5.4v-12.9l-10.8,12.9h-5.2v-20.5H465.1z"/>
		<path class="st1" d="M490,303.5v7.2h4.8l4.9-7.2h6.3l-6.6,9.5l7.1,11H500l-5-8.3h-5v8.3h-5.4v-20.5H490z"/>
		<path class="st1" d="M521.2,303.5c4.9,0,8.6,3.3,8.6,8.2c0,4.9-3.6,8-8.6,8h-6.7v4.4h-5.5v-20.5H521.2z M514.5,314.7h6.5
			c1.9,0,3.3-1,3.3-3c0-2-1.4-3.2-3.3-3.2h-6.5V314.7z"/>
		<path class="st1" d="M538.1,303.5v13l10.8-13h5.2v20.5h-5.4v-12.9l-10.8,12.9h-5.2v-20.5H538.1z"/>
		<path class="st1" d="M571.6,311c0.7,0,1-0.4,1-1.2c0-1.2-1.4-1.9-4.6-1.9c-3.7,0-5.3,0.4-8,2.2l-2.3-3.9c3.3-2.3,6.4-3,10.2-3
			c3.7,0,6.4,0.7,8.1,2c1.4,1.1,2.1,2.6,2.1,4.6c0,1.1-0.4,2.3-1.2,2.9c1.6,1.1,2.5,2.6,2.5,4.9c0,2.1-1,3.8-2.9,5.2
			c-1.9,1.4-4.9,1.9-8.5,1.9c-4.6,0-7.6-0.9-11-3.3l2.5-4c2.4,1.6,5.4,2.5,8.8,2.5c3.4,0,5.6-0.5,5.6-2.6c0-1-0.6-1.4-2.4-1.4h-8.3
			V311H571.6z"/>
		<path class="st1" d="M593.8,324.6c-6.1,0-11.5-4.3-11.5-10.8c0-6.4,5.4-10.8,11.5-10.8s11.5,4.3,11.5,10.8
			C605.3,320.2,599.9,324.6,593.8,324.6z M593.8,319.9c3.4,0,6-2.4,6-6.1s-2.7-6.1-6-6.1c-3.4,0-6.1,2.4-6.1,6.1
			S590.4,319.9,593.8,319.9z"/>
		<path class="st1" d="M622,303.5c3.7,0,6.4,2.2,6.4,5.7c0,1.3-0.5,2.6-1.4,3.2c1.8,1,2.8,2.6,2.8,5.2c0,3.6-3,6.5-6.7,6.5h-14.4
			v-20.5H622z M614.1,311.2h7.8c0.6,0,1.1-0.7,1.1-1.4c0-0.5-0.3-1.4-1.3-1.4h-7.6V311.2z M614.1,319.1h8.8c0.9,0,1.5-0.6,1.5-1.6
			c0-0.9-0.7-1.6-1.7-1.6h-8.6V319.1z"/>
		<path class="st1" d="M638.1,303.5v13l10.8-13h5.2v20.5h-5.4v-12.9l-10.8,12.9h-5.2v-20.5H638.1z"/>
		<path class="st1" d="M663,303.5v13l10.8-13h5.2v20.5h-5.4v-12.9l-10.8,12.9h-5.2v-20.5H663z M674.8,300.5
			c-2.6,2.1-4.3,2.4-6.5,2.4s-3.9-0.3-6.5-2.4l2.5-2.9c1.1,0.8,2,1.2,3.9,1.2s2.9-0.4,4-1.2L674.8,300.5z"/>
		<path class="st1" d="M395.5,337.4h5.5v2.1h3.7c4.9,0,8.6,3.3,8.6,8.2c0,4.9-3.7,8-8.6,8H401v2.2h-5.5v-2.2h-3.7
			c-4.9,0-8.6-3.1-8.6-8c0-4.9,3.7-8.2,8.6-8.2h3.7V337.4z M392,344.5c-2.1,0-3.3,1-3.3,3.1c0,2,1.3,3,3.3,3h3.5v-6.2H392z
			 M401,350.7h3.5c2,0,3.3-1,3.3-3c0-2.1-1.2-3.1-3.3-3.1H401V350.7z"/>
		<path class="st1" d="M427.4,358.4c-6.1,0-11.5-4.3-11.5-10.8c0-6.4,5.4-10.8,11.5-10.8c6.1,0,11.5,4.3,11.5,10.8
			C438.9,354.1,433.5,358.4,427.4,358.4z M427.4,353.8c3.4,0,6-2.4,6-6.1s-2.7-6.1-6-6.1c-3.4,0-6.1,2.4-6.1,6.1
			S424,353.8,427.4,353.8z"/>
		<path class="st1" d="M447.7,337.4v7.5h10.1v-7.5h5.5v20.5h-5.5v-8.1h-10.1v8.1h-5.5v-20.5H447.7z"/>
		<path class="st1" d="M488.5,337.4V353h2.3v8.6h-4.7l-0.4-3.7h-14.2l-0.4,3.7h-4.8V353h2.5l3-15.6H488.5z M474.5,353h8.6v-10.9
			h-6.8L474.5,353z"/>
	</g>
</g>
</svg>
