<?xml version="1.0" encoding="utf-8"?>
<!-- Generator: Adobe Illustrator 27.6.1, SVG Export Plug-In . SVG Version: 6.00 Build 0)  -->
<svg version="1.1" id="_Слой_1" xmlns="http://www.w3.org/2000/svg" xmlns:xlink="http://www.w3.org/1999/xlink" x="0px"
	 y="0px" viewBox="0 0 841.9 595.3" style="enable-background:new 0 0 841.9 595.3;" xml:space="preserve">
<style type="text/css">
	.st0{fill:#0088CF;}
	.st1{fill:#FFD300;}
	.st2{fill:#37B34A;}
</style>
<g>
	<g>
		<path class="st0" d="M423.1,222v12.9c0,4.5,2,7.1,6.3,7.1c4.3,0,6.3-2.6,6.3-7.1V222h6.8v12.9c0,8.4-5.1,13-13,13
			c-8,0-13-4.7-13-13V222H423.1z"/>
		<path class="st0" d="M453.1,222v8.9h5.9l6.1-8.9h7.8l-8.1,11.7l8.7,13.6h-8l-6.2-10.2h-6.1v10.2h-6.7V222H453.1z"/>
		<path class="st0" d="M491.6,222c6.1,0,10.6,4.1,10.6,10.1c0,3.7-1.7,6.6-4.6,8.3l3.8,6.9h-7.3l-2.9-5.4h-7.9v5.4h-6.7V222H491.6z
			 M483.4,235.7h8c2.4,0,4.1-1.2,4.1-3.7c0-2.4-1.7-3.9-4.1-3.9h-8V235.7z"/>
		<path class="st0" d="M525.5,222l10.7,25.3h-7.1l-1.6-3.7h-14l-1.6,3.7h-7.2l11-25.3H525.5z M516,237.7h8.9L521,228H520L516,237.7z
			"/>
		<path class="st0" d="M546.3,222v25.3h-6.7V222H546.3z"/>
		<path class="st0" d="M556.7,222l13.5,15.3V222h6.7v25.3h-6.2L557.2,232v15.3h-6.6V222H556.7z"/>
		<path class="st0" d="M588,222v25.3h-6.7V222H588z"/>
		<path class="st0" d="M612.1,222l10.7,25.3h-7.1l-1.6-3.7h-14l-1.6,3.7h-7.2l11-25.3H612.1z M602.6,237.7h8.9l-3.8-9.7h-1.1
			L602.6,237.7z"/>
		<path class="st0" d="M632.4,222l13.5,15.3V222h6.7v25.3h-6.2L632.9,232v15.3h-6.6V222H632.4z"/>
		<path class="st0" d="M439.9,263.7v6.1h-16.5v3.3h14.9v6.1h-14.9v3.6h17.1v6.2h-23.9v-25.3H439.9z"/>
		<path class="st0" d="M465.8,273.2c-1.9-2.7-4.1-4.2-8-4.2c-4.5,0-7.5,2.8-7.5,7.3c0,4.4,3.1,7.3,7.5,7.3c3.8,0,6.2-1.5,7.9-4.2
			l5.2,2.9c-2.6,4.8-7,7.2-13,7.2c-8.1,0-14.2-5.1-14.2-13.3c0-8.1,6.2-13.3,14.2-13.3c6.1,0,10.5,2.4,13.1,7.2L465.8,273.2z"/>
		<path class="st0" d="M488.4,289.6c-7.5,0-14.2-5.3-14.2-13.3s6.7-13.3,14.2-13.3c7.5,0,14.2,5.3,14.2,13.3S496,289.6,488.4,289.6z
			 M488.4,283.9c4.2,0,7.5-2.9,7.5-7.5c0-4.6-3.3-7.5-7.5-7.5c-4.2,0-7.5,2.9-7.5,7.5C480.9,281,484.2,283.9,488.4,283.9z"/>
		<path class="st0" d="M431.5,305.4c6.1,0,10.6,4.1,10.6,10.1c0,3.7-1.7,6.6-4.6,8.3l3.8,6.9H434l-2.9-5.4h-7.9v5.4h-6.7v-25.3
			H431.5z M423.3,319.1h8c2.4,0,4.1-1.2,4.1-3.7c0-2.4-1.7-3.9-4.1-3.9h-8V319.1z"/>
		<path class="st0" d="M468.8,305.4v6.1h-16.5v3.3h14.9v6.1h-14.9v3.6h17.1v6.2h-23.9v-25.3H468.8z"/>
		<path class="st0" d="M495.4,313.7c-2.9-2.1-6-3-9.9-3c-4.3,0-5.3,1-5.3,2.1c0,1.1,1.1,1.2,2.6,1.4l7.4,0.8c5.6,0.7,9,2.9,9,7.8
			c0,5.8-5.8,8.4-13.3,8.4c-5.3,0-9.2-1.1-13.3-4.3l3.2-5.2c3.4,2.4,6.9,3.7,10.8,3.7c3.5,0,6.2-0.8,6.2-2.5c0-0.9-0.2-1.3-1.8-1.5
			l-8.7-1c-5.3-0.6-8.5-2.7-8.5-7.6c0-5.5,5.3-8.1,11.9-8.1c4.8,0,9.1,0.9,13.2,4L495.4,313.7z"/>
		<path class="st0" d="M524.9,314.9c-1.9-2.7-4.1-4.2-8-4.2c-4.5,0-7.5,2.8-7.5,7.3c0,4.4,3.1,7.3,7.5,7.3c3.8,0,6.2-1.5,7.9-4.2
			l5.2,2.9c-2.6,4.8-7,7.2-13,7.2c-8.1,0-14.2-5.1-14.2-13.3c0-8.1,6.2-13.3,14.2-13.3c6.1,0,10.5,2.4,13.1,7.2L524.9,314.9z"/>
		<path class="st0" d="M540.5,305.4v12.9c0,4.5,2,7.1,6.3,7.1c4.3,0,6.3-2.6,6.3-7.1v-12.9h6.8v12.9c0,8.4-5.1,13-13,13
			c-8,0-13-4.7-13-13v-12.9H540.5z"/>
		<path class="st0" d="M587.1,305.4v6.1h-16.5v3.3h14.9v6.1h-14.9v3.6h17.1v6.2h-23.9v-25.3H587.1z"/>
		<path class="st0" d="M416.6,347.1h23.5v6.1h-16.8v3.9h14.8v6.1h-14.8v9.2h-6.7V347.1z"/>
		<path class="st0" d="M457.6,373c-7.5,0-14.2-5.3-14.2-13.3c0-7.9,6.7-13.3,14.2-13.3c7.5,0,14.2,5.4,14.2,13.3
			C471.8,367.6,465.1,373,457.6,373z M457.6,367.3c4.2,0,7.5-2.9,7.5-7.5s-3.3-7.5-7.5-7.5c-4.2,0-7.5,2.9-7.5,7.5
			S453.4,367.3,457.6,367.3z"/>
		<path class="st0" d="M482.4,347.1V360c0,4.5,2,7.1,6.3,7.1c4.3,0,6.3-2.6,6.3-7.1v-12.9h6.8V360c0,8.4-5.1,13-13,13
			c-8,0-13-4.7-13-13v-12.9H482.4z"/>
		<path class="st0" d="M511.9,347.1l13.5,15.3v-15.3h6.7v25.3h-6.2l-13.5-15.3v15.3h-6.6v-25.3H511.9z"/>
		<path class="st0" d="M549.7,347.1c6.8,0,13.6,5.2,13.6,12.6c0,7.5-6.8,12.7-13.6,12.7h-13.3v-25.3H549.7z M543.1,366.2h6.7
			c3.8,0,6.8-2.8,6.8-6.5c0-3.7-3-6.5-6.8-6.5h-6.7V366.2z"/>
		<path class="st0" d="M585.7,347.1l10.7,25.3h-7.1l-1.6-3.7h-14l-1.6,3.7H565l11-25.3H585.7z M576.2,362.8h8.9l-3.8-9.7h-1.1
			L576.2,362.8z"/>
		<path class="st0" d="M621.4,347.1v6h-9.8v19.2h-6.8v-19.2H595v-6H621.4z"/>
		<path class="st0" d="M631.6,347.1v25.3h-6.7v-25.3H631.6z"/>
		<path class="st0" d="M650,373c-7.5,0-14.2-5.3-14.2-13.3c0-7.9,6.7-13.3,14.2-13.3c7.5,0,14.2,5.4,14.2,13.3
			C664.2,367.6,657.5,373,650,373z M650,367.3c4.2,0,7.5-2.9,7.5-7.5s-3.3-7.5-7.5-7.5c-4.2,0-7.5,2.9-7.5,7.5
			S645.8,367.3,650,367.3z"/>
		<path class="st0" d="M674.4,347.1l13.5,15.3v-15.3h6.7v25.3h-6.2l-13.5-15.3v15.3h-6.6v-25.3H674.4z"/>
	</g>
	<g>
		<path class="st1" d="M378.2,215.7v125c0,56.7-46.2,102.9-102.9,102.9h0v-65.2h0c20.7,0,37.6-16.9,37.6-37.6v-125H378.2z"/>
		<path class="st0" d="M378.2,152.7v125c0,56.7-46.1,102.9-102.9,102.9h0c-56.7,0-102.9-46.1-102.9-102.9v-48h65.2v48
			c0,20.8,16.9,37.6,37.6,37.6h0c20.7,0,37.6-16.9,37.6-37.6v-125H378.2z"/>
		<polygon class="st2" points="237.7,179.6 237.7,222 205.1,222 172.5,222 172.5,179.6 205.1,152.6 		"/>
		<path class="st2" d="M172.5,179.7c-7,0.5-14.2-1.9-19.6-7.3c-5.4-5.4-7.8-12.6-7.3-19.6c7-0.5,14.3,1.9,19.6,7.3
			C170.6,165.4,173,172.7,172.5,179.7z"/>
		<path class="st2" d="M172.5,179.7c0.4,4.9-1.3,9.9-5,13.6c-3.7,3.7-8.7,5.4-13.6,5c-0.4-4.9,1.3-9.9,5-13.6
			C162.6,181,167.6,179.3,172.5,179.7z"/>
	</g>
</g>
</svg>
