<?xml version="1.0" encoding="iso-8859-1"?>
<!-- Uploaded to: SVG Repo, www.svgrepo.com, Generator: SVG Repo Mixer Tools -->
<svg height="800px" width="800px" version="1.1" id="Layer_1" xmlns="http://www.w3.org/2000/svg" xmlns:xlink="http://www.w3.org/1999/xlink" 
	 viewBox="0 0 512.003 512.003" xml:space="preserve">
<g>
	<path style="fill:#FFC552;" d="M435.504,238.904c-9.443,0-17.097,7.654-17.097,17.097v85.484h34.194v-85.484
		C452.601,246.558,444.947,238.904,435.504,238.904z"/>
	<path style="fill:#FFC552;" d="M76.472,238.904c9.443,0,17.097,7.654,17.097,17.097v85.484H59.375v-85.484
		C59.375,246.558,67.03,238.904,76.472,238.904z"/>
</g>
<g>
	<circle style="fill:#72CCC5;" cx="255.991" cy="264.551" r="170.968"/>
	<circle style="fill:#72CCC5;" cx="255.991" cy="264.551" r="170.968"/>
</g>
<path style="fill:#11BBA3;" d="M255.988,367.13c-82.712,0-151.703-58.737-167.544-136.774c-2.243,11.049-3.424,22.483-3.424,34.194
	c0,94.423,76.545,170.968,170.968,170.968s170.968-76.544,170.968-170.968c0-11.71-1.181-23.145-3.424-34.194
	C407.692,308.393,338.7,367.13,255.988,367.13z"/>
<g>
	<path style="fill:#66BF00;" d="M230.343,144.872l8.548,25.645l25.645,8.548v34.194l-17.097,25.645v25.645l42.742,8.548v25.645
		l42.742,42.742h17.097l8.548-42.742v-34.194l25.645-8.548h25.645l12.774-29.807c-17.411-75.954-85.41-132.612-166.645-132.612
		c-24.318,0-47.444,5.088-68.387,14.239v28.502L230.343,144.872z"/>
	<path style="fill:#66BF00;" d="M204.698,392.775l25.645-17.097l8.548-34.194v-42.742l-25.645-8.548l-25.645-25.645l-17.097-25.645
		h-34.194l-17.097,34.194l-8.548-25.645v-25.645l-18.531-6.177c-4.62,15.5-7.114,31.918-7.114,48.919
		c0,80.012,54.967,147.179,129.197,165.818l-0.971-3.399L204.698,392.775z"/>
</g>
<path style="fill:#58AB23;" d="M88.461,230.444c-2.236,11.023-3.44,22.421-3.44,34.105c0,80.012,54.967,147.179,129.197,165.818
	l-0.971-3.399l-8.548-34.194l25.645-17.097l2.527-10.11C160.706,355.812,102.831,301.041,88.461,230.444z"/>
<path style="fill:#FFE5BA;" d="M485.969,213.278c-9.196,0.433-14.232,8.583-16.271,17.561
	c-4.987,21.957-17.097,76.452-17.097,76.452l-51.29,42.742h-25.645l20.728-39.293c6.626-6.727,6.545-17.552-0.182-24.178
	c-6.727-6.626-17.552-6.545-24.178,0.182c0,0-44.028,65.996-63.841,93.902c-6.166,8.685-9.463,19.079-9.463,29.73v93.527h76.935
	v-51.29l102.581-111.129l25.645-111.129C503.891,220.639,495.786,212.817,485.969,213.278z"/>
<path style="fill:#FFD175;" d="M491.287,213.856l-26.932,119.436l-114.69,119.677v50.934h26.001v-51.29l102.581-111.129
	l25.645-111.129C503.891,222.469,498.55,215.829,491.287,213.856z"/>
<path style="fill:#FFE5BA;" d="M26.009,213.278c9.196,0.433,16.271,8.354,16.271,17.561l17.097,76.452l51.29,42.742h25.645
	l-20.728-39.293c-6.626-6.727-6.545-17.552,0.182-24.178c6.727-6.626,17.552-6.545,24.178,0.182c0,0,44.028,65.996,63.841,93.902
	c6.166,8.685,9.463,19.079,9.463,29.73v93.527h-76.935v-51.29L33.732,341.484L8.087,230.355
	C8.085,220.639,16.19,212.817,26.009,213.278z"/>
<path style="fill:#FFD175;" d="M20.69,213.856l26.932,119.436l114.69,119.677v50.934h-26.001v-51.29L33.73,341.485L8.085,230.356
	C8.085,222.469,13.427,215.829,20.69,213.856z"/>
<path style="fill:#FFC552;" d="M444.053,93.582c-17.097-17.097-34.194-5.615-34.194,8.548c0,25.645,34.194,42.742,34.194,42.742
	s34.194-17.097,34.194-42.742C478.246,87.966,461.149,76.485,444.053,93.582z"/>
<path style="fill:#FC9C47;" d="M426.956,93.582c0-2.99,0.769-5.855,2.132-8.362c-10.869-1.568-19.228,7.01-19.228,16.911
	c0,25.645,34.194,42.742,34.194,42.742s7.072-3.544,14.781-9.809C451.152,130.677,426.956,115.157,426.956,93.582z"/>
<path style="fill:#FFC552;" d="M67.924,93.582c17.097-17.097,34.194-5.615,34.194,8.548c0,25.645-34.194,42.742-34.194,42.742
	S33.73,127.775,33.73,102.13C33.73,87.966,50.827,76.485,67.924,93.582z"/>
<path style="fill:#FC9C47;" d="M50.827,93.595c0-2.994,0.771-5.865,2.138-8.375c-10.872-1.572-19.235,7.006-19.235,16.91
	c0,25.645,34.194,42.742,34.194,42.742s7.065-3.541,14.772-9.802C75.003,130.678,50.827,115.161,50.827,93.595z"/>
<path style="fill:#FFC552;" d="M255.988,16.66c-17.097-17.097-34.194-5.615-34.194,8.548c0,25.645,34.194,42.742,34.194,42.742
	s34.194-17.097,34.194-42.742C290.182,11.045,273.085-0.437,255.988,16.66z"/>
<path style="fill:#FC9C47;" d="M238.891,16.66c0-2.99,0.769-5.855,2.132-8.362c-10.869-1.568-19.229,7.01-19.229,16.911
	c0,25.645,34.194,42.742,34.194,42.742s7.072-3.544,14.781-9.809C263.088,53.756,238.891,38.235,238.891,16.66z"/>
<path d="M306.744,136.323c0-4.426-3.587-8.014-8.014-8.014h-8.548c-4.427,0-8.014,3.588-8.014,8.014s3.587,8.014,8.014,8.014h8.548
	C303.157,144.338,306.744,140.749,306.744,136.323z"/>
<path d="M358.034,179.065c0-4.426-3.587-8.014-8.014-8.014h-17.097c-4.427,0-8.014,3.588-8.014,8.014
	c0,4.426,3.587,8.014,8.014,8.014h17.097C354.447,187.079,358.034,183.491,358.034,179.065z"/>
<path d="M307.278,222.342h-8.548c-4.427,0-8.014,3.588-8.014,8.014s3.587,8.014,8.014,8.014h8.548c4.427,0,8.014-3.588,8.014-8.014
	S311.705,222.342,307.278,222.342z"/>
<path d="M427.909,384.202l-58.131,62.977c-1.367,1.48-2.125,3.421-2.125,5.436v51.29c0,4.426,3.587,8.014,8.014,8.014
	s8.014-3.588,8.014-8.014v-48.158l56.006-60.674c3.003-3.252,2.8-8.323-0.453-11.324
	C435.981,380.746,430.908,380.949,427.909,384.202z"/>
<path d="M504.126,212.185c-5.014-4.784-11.587-7.235-18.535-6.911c-13.091,0.615-23.412,11.337-23.89,24.602l-3.462,15.479
	c-4.668-9.929-15.547-15.788-26.406-14.194C416.149,148.372,343.27,85.567,255.988,85.567c-39.092,0-76.229,12.377-107.4,35.792
	c-3.539,2.659-4.252,7.682-1.594,11.221c2.657,3.538,7.682,4.252,11.221,1.594c6.825-5.127,13.968-9.667,21.371-13.614v15.762
	c0,3.82,2.696,7.109,6.442,7.858l38.181,7.636l7.078,21.233c0.798,2.394,2.676,4.271,5.069,5.069l20.166,6.722v25.99l-15.75,23.627
	c-0.877,1.316-1.346,2.864-1.346,4.445v25.645c0,3.82,2.696,7.109,6.442,7.858l36.3,7.26v19.076c0,2.125,0.844,4.164,2.347,5.667
	l39.401,39.401c-8.383,12.303-16.406,23.959-22.256,32.197c-7.159,10.083-10.943,21.968-10.943,34.37v13.401
	c-22.694,4.919-46.745,4.921-69.456,0.003v-13.405c0-5.934-0.876-11.747-2.563-17.303l16.091-10.727
	c1.658-1.106,2.847-2.79,3.33-4.724l8.548-34.194c0.159-0.636,0.239-1.289,0.239-1.944v-42.742c0-3.449-2.208-6.512-5.48-7.603
	l-23.85-7.95l-23.746-23.745l-16.657-24.985c-1.486-2.229-3.988-3.569-6.668-3.569h-34.194c-3.036,0-5.811,1.715-7.168,4.43
	l-8.445,16.888l-2.018-6.055v-24.345c0-3.449-2.208-6.512-5.48-7.603l-10.948-3.649c6.569-18.713,16.535-36.214,29.554-51.522
	c2.868-3.371,2.459-8.43-0.913-11.297c-3.372-2.867-8.43-2.46-11.297,0.913c-20.18,23.725-33.687,52.242-39.439,82.539
	c-1.215-0.18-2.442-0.297-3.685-0.297c-10.223,0-19.032,6.144-22.946,14.93c-1.32-6.144-2.494-11.828-3.373-16.473
	c-2.706-14.286-11.813-23.511-23.768-24.074c-6.927-0.329-13.519,2.129-18.535,6.912c-2.654,2.532-4.73,5.655-6.062,9.073
	c-1.258,3.23-2.309,7.442-1.512,10.9l25.645,111.129c0.313,1.358,0.976,2.609,1.92,3.633L128.298,455.75v48.156
	c0,4.426,3.588,8.014,8.014,8.014s8.014-3.588,8.014-8.014v-51.29c0-2.014-0.759-3.956-2.125-5.436L41.062,337.611l-24.93-108.029
	c0.401-4.817,4.686-8.526,9.5-8.298c6.255,0.295,8.297,8.529,8.773,11.046c4.613,24.36,16.667,74.699,17.178,76.83
	c0.403,1.679,1.337,3.183,2.663,4.288l51.29,42.742c1.44,1.2,3.256,1.857,5.13,1.857h25.645c5.927,0,9.864-6.523,7.079-11.77
	c-0.139-0.262-13.956-26.304-20.701-39.241c-5.527-10.6-2.457-13.625-1.3-14.763c3.413-3.363,8.838-3.469,12.377-0.346
	c4.896,7.33,44.955,67.263,63.482,93.36c5.223,7.357,7.984,16.032,7.984,25.091v93.527c0,4.426,3.588,8.014,8.014,8.014
	s8.014-3.588,8.014-8.014v-63.761c11.39,2.239,23.036,3.388,34.728,3.388c11.691,0,23.341-1.144,34.728-3.382v63.755
	c0,4.426,3.587,8.014,8.014,8.014s8.014-3.588,8.014-8.014v-93.527c0-9.058,2.761-17.734,7.984-25.091
	c18.528-26.097,58.586-86.029,63.482-93.36c3.541-3.123,8.964-3.018,12.377,0.345c1.075,1.059,4.346,4.282-1.249,14.668
	c-4.8,8.908-20.611,39.069-20.77,39.372c-2.749,5.244,1.187,11.735,7.098,11.735h25.645c1.875,0,3.69-0.657,5.131-1.857
	l51.29-42.742c1.384-1.149,2.352-2.791,2.722-4.547l17.066-76.314c0.128-0.574,0.193-1.16,0.193-1.749
	c0-5.045,3.872-9.331,8.633-9.555c4.814-0.231,9.1,3.485,9.5,8.298l-24.929,108.029l-15.313,16.589
	c-3.003,3.252-2.8,8.323,0.453,11.324c3.253,3.002,8.321,2.798,11.324-0.453l16.756-18.151c0.946-1.024,1.607-2.276,1.92-3.633
	l25.645-111.129c0.832-3.6-0.198-7.54-1.512-10.9C508.851,217.841,506.783,214.72,504.126,212.185z M122.997,342.019h-9.429
	l-46.177-38.482v-47.536c0-5.008,4.074-9.083,9.083-9.083c0.476,0,0.944,0.045,1.405,0.116c-0.571,5.801-0.871,11.644-0.871,17.515
	c0,15.133,1.893,30.17,5.628,44.695c1.119,4.353,5.75,6.953,10.054,5.684c4.075-1.202,6.526-5.569,5.47-9.675
	c-3.399-13.221-5.123-26.916-5.123-40.703c0-13.098,1.587-26.061,4.651-38.621l4.966,1.655v19.869c0,0.861,0.139,1.717,0.411,2.535
	l8.548,25.645c0.34,1.02,0.887,1.926,1.565,2.707c-1.057,0.757-2.082,1.575-3.036,2.515c-5.781,5.694-10.761,16.144-1.664,33.592
	C112.307,321.793,118.401,333.333,122.997,342.019z M146.609,282.297c-0.282-0.422-0.602-0.815-0.957-1.176
	c-4.872-4.945-11.304-7.439-17.752-7.474l13.364-26.729h24.952l14.717,22.076c0.293,0.439,0.628,0.848,1.001,1.221l25.645,25.645
	c0.879,0.879,1.952,1.543,3.133,1.936l20.166,6.722v35.979l-7.558,30.231l-11.43,7.62
	C211.384,377.559,147.049,282.956,146.609,282.297z M298.196,295.424v-22.326c0-3.82-2.696-7.109-6.442-7.858l-36.3-7.26v-16.649
	l15.75-23.627c0.877-1.316,1.346-2.864,1.346-4.445v-34.194c0-3.449-2.207-6.512-5.479-7.603l-21.844-7.281l-7.281-21.843
	c-0.909-2.728-3.211-4.76-6.032-5.325l-36.3-7.26v-16.226c0-0.139-0.014-0.274-0.02-0.41c19.011-7.595,39.391-11.522,60.393-11.522
	c76.545,0,140.922,53.057,158.315,124.322c-0.39,0.513-0.731,1.074-0.996,1.693l-8.732,20.376h-20.361
	c-0.861,0-1.717,0.139-2.535,0.411l-25.645,8.548c-3.273,1.091-5.479,4.153-5.479,7.603v37.399c0,0.71,0.102,1.393,0.275,2.048
	c-5.223,7.773-11.397,16.94-17.745,26.313L298.196,295.424z M398.409,342.019h-9.484c5.014-9.54,11.705-22.242,14.525-27.477
	c9.83-18.245,3.209-28.938-1.612-33.688c-9.78-9.635-25.517-9.585-35.254,0.03v-10.558l18.931-6.311h24.345
	c3.206,0,6.104-1.911,7.367-4.858l1.475-3.442c0.157,2.926,0.242,5.87,0.242,8.834c0,12.629-1.448,25.206-4.306,37.381
	c-1.011,4.309,1.663,8.622,5.971,9.634c4.253,0.998,8.636-1.72,9.634-5.971c3.139-13.374,4.73-27.183,4.73-41.044
	c0-5.911-0.296-11.753-0.858-17.519c0.458-0.069,0.922-0.112,1.392-0.112c5.008,0,9.083,4.074,9.083,9.083v47.538L398.409,342.019z"
	/>
<path d="M440.469,152.04c2.236,1.118,4.932,1.118,7.169,0c1.577-0.789,38.624-19.659,38.624-49.91
	c0-10.285-6.017-19.421-15.328-23.278c-4.329-1.793-14.797-4.478-26.879,4.209c-12.082-8.687-22.551-6.002-26.879-4.209
	c-9.311,3.857-15.328,12.995-15.328,23.278C401.845,132.381,438.891,151.251,440.469,152.04z M423.307,93.66
	c1.007-0.418,2.082-0.622,3.208-0.622c3.642,0,7.809,2.148,11.87,6.21c3.131,3.13,8.204,3.13,11.334,0
	c5.317-5.318,10.812-7.355,15.078-5.589c3.249,1.346,5.434,4.75,5.434,8.47c0,14.776-16.479,27.754-26.13,33.552
	c-7.888-4.8-26.229-17.673-26.229-33.552C417.873,98.41,420.057,95.006,423.307,93.66z"/>
<path d="M64.34,152.04c2.236,1.118,4.931,1.118,7.168,0c1.577-0.789,38.624-19.659,38.624-49.91
	c0-10.285-6.017-19.421-15.328-23.278c-4.329-1.793-14.796-4.478-26.879,4.209c-12.083-8.687-22.551-6.002-26.879-4.209
	c-9.311,3.857-15.328,12.995-15.328,23.278C25.716,132.381,62.763,151.251,64.34,152.04z M47.179,93.66
	c1.007-0.418,2.082-0.622,3.207-0.622c3.642,0,7.809,2.148,11.872,6.21c3.13,3.13,8.204,3.13,11.333,0
	c5.319-5.318,10.817-7.353,15.078-5.589c3.251,1.346,5.434,4.75,5.434,8.47c0,14.776-16.478,27.754-26.13,33.552
	c-7.888-4.8-26.229-17.673-26.229-33.552C41.744,98.41,43.928,95.006,47.179,93.66z"/>
<path d="M252.404,75.118c2.236,1.118,4.932,1.118,7.168,0c1.577-0.789,38.624-19.659,38.624-49.91
	c0-10.285-6.017-19.421-15.328-23.278c-4.328-1.793-14.797-4.477-26.879,4.209c-12.082-8.687-22.552-6.002-26.879-4.209
	c-9.311,3.857-15.328,12.995-15.328,23.278C213.781,55.458,250.827,74.33,252.404,75.118z M235.243,16.738
	c1.007-0.418,2.082-0.622,3.207-0.622c3.642,0,7.809,2.148,11.872,6.21c3.129,3.129,8.202,3.13,11.334,0
	c5.317-5.318,10.812-7.355,15.078-5.589c3.249,1.346,5.434,4.75,5.434,8.47c0,14.776-16.479,27.754-26.13,33.552
	c-7.888-4.8-26.229-17.673-26.229-33.552C229.809,21.488,231.993,18.084,235.243,16.738z"/>
</svg>